# Blender 4.3.2
# www.blender.org
o Sphere
v -0.027102 0.077013 -0.163419
v -0.029381 0.022262 -0.108201
v -0.025651 -0.007713 -0.036511
v -0.003262 0.020455 0.111785
v 0.023003 0.225085 -0.194883
v 0.035845 0.148361 -0.194283
v 0.044767 0.077216 -0.164105
v 0.048409 0.022482 -0.108944
v 0.046218 -0.007510 -0.037197
v 0.038527 -0.008192 0.040213
v 0.026507 0.020539 0.111501
v 0.050539 0.234639 -0.188820
v 0.086726 0.166013 -0.183080
v 0.111246 0.100279 -0.149468
v 0.120366 0.047445 -0.093101
v 0.112697 0.015554 -0.022560
v 0.089408 0.009460 0.051416
v 0.054043 0.030092 0.117564
v 0.071651 0.252206 -0.177333
v 0.125736 0.198474 -0.161855
v 0.162215 0.142691 -0.121736
v 0.175534 0.093351 -0.063084
v 0.163666 0.057965 0.005172
v 0.128418 0.041921 0.072641
v 0.075155 0.047660 0.129051
v 0.083124 0.275114 -0.162171
v 0.146935 0.240801 -0.133839
v 0.189913 0.197995 -0.085132
v 0.205515 0.153211 -0.023463
v 0.191365 0.113269 0.041777
v 0.149617 0.084248 0.100657
v 0.086628 0.070567 0.144213
v 0.083212 0.299874 -0.145642
v 0.147098 0.286552 -0.103297
v 0.190125 0.257771 -0.045227
v 0.205744 0.217913 0.019729
v 0.191577 0.173045 0.081682
v 0.149780 0.129999 0.131199
v 0.086716 0.095328 0.160742
v 0.071901 0.322717 -0.130262
v 0.126198 0.328760 -0.074879
v 0.162818 0.312919 -0.008097
v 0.176187 0.277604 0.059919
v 0.164270 0.228193 0.118812
v 0.128880 0.172207 0.159617
v 0.075405 0.118171 0.176122
v 0.050913 0.340165 -0.118373
v 0.087417 0.361001 -0.052911
v 0.112149 0.355043 0.020606
v 0.121343 0.323199 0.090986
v 0.113601 0.270317 0.147514
v 0.090099 0.204448 0.181585
v 0.054417 0.135619 0.188011
v 0.023444 0.349563 -0.111785
v 0.036660 0.378365 -0.040738
v 0.045832 0.377731 0.036511
v 0.049562 0.347756 0.108201
v 0.047284 0.293005 0.163419
v 0.039342 0.221812 0.193758
v 0.026948 0.145017 0.194599
v 0.011987 0.074309 0.165814
v 0.008194 0.295708 -0.165814
v -0.006325 0.349478 -0.111501
v -0.018345 0.378209 -0.040213
v -0.026037 0.377527 0.037197
v -0.028228 0.347536 0.108944
v -0.024585 0.292802 0.164105
v -0.015664 0.221657 0.194283
v -0.002821 0.144932 0.194883
v -0.033862 0.339925 -0.117564
v -0.069226 0.360558 -0.051416
v -0.092516 0.354464 0.022560
v -0.100184 0.322573 0.093101
v -0.091064 0.269738 0.149468
v -0.066544 0.204005 0.183080
v -0.030358 0.135379 0.188820
v -0.054974 0.322358 -0.129051
v -0.108236 0.328097 -0.072641
v -0.143484 0.312052 -0.005172
v -0.155352 0.276667 0.063084
v -0.142033 0.227327 0.121736
v -0.105554 0.171544 0.161855
v -0.051470 0.117812 0.177333
v -0.066447 0.299450 -0.144213
v -0.129436 0.285769 -0.100657
v -0.171183 0.256749 -0.041777
v -0.185333 0.216806 0.023463
v -0.169732 0.172023 0.085132
v -0.126754 0.129217 0.133839
v -0.062943 0.094904 0.162171
v -0.066535 0.274690 -0.160742
v -0.129598 0.240019 -0.131199
v -0.171395 0.196973 -0.081682
v -0.185563 0.152105 -0.019729
v -0.169944 0.112247 0.045227
v -0.126916 0.083466 0.103297
v -0.063030 0.070144 0.145642
v -0.055224 0.251847 -0.176122
v -0.108698 0.197810 -0.159617
v -0.144088 0.141825 -0.118812
v -0.156006 0.092413 -0.059918
v -0.142636 0.057099 0.008097
v -0.106016 0.041258 0.074879
v -0.051719 0.047301 0.130262
v -0.034236 0.234399 -0.188010
v -0.069918 0.165570 -0.181584
v -0.093419 0.099700 -0.147514
v -0.101162 0.046818 -0.090986
v -0.091967 0.014975 -0.020606
v -0.067236 0.009017 0.052911
v -0.030732 0.029853 0.118373
v -0.006766 0.225001 -0.194599
v -0.019161 0.148206 -0.193758
v -0.016479 -0.008347 0.040738
vn -0.1871 -0.5491 -0.8146
vn -0.1980 -0.8163 -0.5427
vn -0.1800 -0.9648 -0.1919
vn -0.0711 -0.8371 0.5423
vn 0.0688 0.1795 -0.9813
vn 0.1315 -0.2000 -0.9709
vn 0.1747 -0.5480 -0.8180
vn 0.1922 -0.8152 -0.5464
vn 0.1818 -0.9637 -0.1953
vn 0.1448 -0.9720 0.1853
vn 0.0862 -0.8367 0.5408
vn 0.2142 0.2300 -0.9493
vn 0.3910 -0.1100 -0.9138
vn 0.5093 -0.4319 -0.7443
vn 0.5531 -0.6900 -0.4670
vn 0.5164 -0.8476 -0.1217
vn 0.4042 -0.8819 0.2425
vn 0.2317 -0.7862 0.5729
vn 0.3258 0.3228 -0.8886
vn 0.5899 0.0555 -0.8056
vn 0.7659 -0.2184 -0.6047
vn 0.8298 -0.4597 -0.3164
vn 0.7730 -0.6341 0.0180
vn 0.6031 -0.7164 0.3507
vn 0.3432 -0.6934 0.6336
vn 0.3864 0.4438 -0.8085
vn 0.6980 0.2713 -0.6627
vn 0.9053 0.0600 -0.4205
vn 0.9802 -0.1595 -0.1177
vn 0.9124 -0.3557 0.2022
vn 0.7112 -0.5006 0.4935
vn 0.4038 -0.5724 0.7137
vn 0.3869 0.5746 -0.7212
vn 0.6988 0.5046 -0.5070
vn 0.9064 0.3609 -0.2196
vn 0.9813 0.1650 0.0990
vn 0.9135 -0.0548 0.4031
vn 0.7120 -0.2673 0.6493
vn 0.4043 -0.4416 0.8010
vn 0.3271 0.6953 -0.6400
vn 0.5922 0.7198 -0.3621
vn 0.7689 0.6385 -0.0327
vn 0.8331 0.4644 0.3005
vn 0.7760 0.2228 0.5900
vn 0.6055 -0.0521 0.7942
vn 0.3445 -0.3209 0.8822
vn 0.2162 0.7875 -0.5771
vn 0.3945 0.8842 -0.2501
vn 0.5139 0.8506 0.1118
vn 0.5580 0.6931 0.4563
vn 0.5210 0.4348 0.7345
vn 0.4077 0.1123 0.9062
vn 0.2336 -0.2287 0.9450
vn 0.0711 0.8371 -0.5423
vn 0.1357 0.9727 -0.1880
vn 0.1800 0.9648 0.1919
vn 0.1980 0.8163 0.5427
vn 0.1871 0.5491 0.8146
vn 0.1489 0.2008 0.9682
vn 0.0885 -0.1791 0.9798
vn 0.0095 -0.5552 0.8316
vn -0.0095 0.5552 -0.8316
vn -0.0862 0.8367 -0.5408
vn -0.1448 0.9720 -0.1853
vn -0.1818 0.9637 0.1953
vn -0.1922 0.8152 0.5464
vn -0.1747 0.5480 0.8180
vn -0.1315 0.2000 0.9709
vn -0.0688 -0.1795 0.9813
vn -0.2317 0.7862 -0.5729
vn -0.4042 0.8819 -0.2425
vn -0.5164 0.8476 0.1217
vn -0.5531 0.6900 0.4670
vn -0.5093 0.4319 0.7443
vn -0.3910 0.1100 0.9138
vn -0.2142 -0.2300 0.9493
vn -0.3432 0.6934 -0.6336
vn -0.6031 0.7164 -0.3507
vn -0.7730 0.6341 -0.0180
vn -0.8298 0.4597 0.3164
vn -0.7659 0.2184 0.6047
vn -0.5899 -0.0555 0.8056
vn -0.3258 -0.3228 0.8886
vn -0.4038 0.5724 -0.7137
vn -0.7112 0.5006 -0.4935
vn -0.9124 0.3557 -0.2022
vn -0.9802 0.1595 0.1177
vn -0.9053 -0.0600 0.4205
vn -0.6980 -0.2713 0.6627
vn -0.3864 -0.4438 0.8085
vn -0.4043 0.4416 -0.8010
vn -0.7120 0.2673 -0.6493
vn -0.9135 0.0548 -0.4031
vn -0.9813 -0.1650 -0.0990
vn -0.9064 -0.3609 0.2196
vn -0.6988 -0.5046 0.5070
vn -0.3869 -0.5746 0.7212
vn -0.3445 0.3209 -0.8822
vn -0.6055 0.0521 -0.7942
vn -0.7760 -0.2228 -0.5900
vn -0.8331 -0.4644 -0.3005
vn -0.7689 -0.6385 0.0327
vn -0.5922 -0.7198 0.3621
vn -0.3271 -0.6953 0.6400
vn -0.2336 0.2287 -0.9450
vn -0.4077 -0.1123 -0.9062
vn -0.5210 -0.4348 -0.7345
vn -0.5580 -0.6931 -0.4563
vn -0.5139 -0.8506 -0.1118
vn -0.3945 -0.8842 0.2501
vn -0.2162 -0.7875 0.5771
vn -0.0885 0.1791 -0.9798
vn -0.1489 -0.2008 -0.9682
vn -0.1357 -0.9727 0.1880
vt 0.477922 0.543373
vt 0.480299 0.539958
vt 0.481408 0.541101
vt 0.205162 0.521408
vt 0.208774 0.520693
vt 0.208969 0.523986
vt 0.205466 0.523967
vt 0.212443 0.520460
vt 0.216102 0.520737
vt 0.215868 0.524029
vt 0.212421 0.524007
vt 0.219706 0.521496
vt 0.223237 0.522652
vt 0.223019 0.524057
vt 0.219377 0.524049
vt 0.201603 0.522529
vt 0.201816 0.523940
vt 0.473896 0.544416
vt 0.474583 0.545853
vt 0.205139 0.526520
vt 0.201603 0.525371
vt 0.212401 0.527550
vt 0.208738 0.527274
vt 0.219690 0.526595
vt 0.216066 0.527315
vt 0.475759 0.546925
vt 0.482006 0.542577
vt 0.223237 0.525464
vt 0.242209 0.514734
vt 0.237320 0.515060
vt 0.237438 0.510460
vt 0.241832 0.510454
vt 0.232450 0.514487
vt 0.227734 0.513058
vt 0.228537 0.509737
vt 0.233046 0.510223
vt 0.477252 0.547478
vt 0.482006 0.544169
vt 0.247019 0.513542
vt 0.246368 0.510211
vt 0.223199 0.510910
vt 0.223731 0.509008
vt 0.251635 0.511608
vt 0.251191 0.509745
vt 0.481408 0.545644
vt 0.241953 0.506356
vt 0.246471 0.506894
vt 0.233137 0.506120
vt 0.237554 0.506103
vt 0.223720 0.507021
vt 0.228571 0.506413
vt 0.251278 0.507757
vt 0.478843 0.547429
vt 0.232732 0.501803
vt 0.237678 0.501463
vt 0.223199 0.505084
vt 0.227867 0.503048
vt 0.247345 0.503553
vt 0.251908 0.505844
vt 0.242584 0.502058
vt 0.480299 0.546787
vt 0.201427 0.522716
vt 0.204984 0.521594
vt 0.205287 0.524151
vt 0.201640 0.524125
vt 0.208595 0.520881
vt 0.212262 0.520652
vt 0.212235 0.524194
vt 0.208789 0.524170
vt 0.215925 0.520936
vt 0.219526 0.521703
vt 0.219187 0.524258
vt 0.215683 0.524223
vt 0.223065 0.522870
vt 0.222837 0.524300
vt 0.219472 0.526816
vt 0.215865 0.527515
vt 0.208555 0.527458
vt 0.204959 0.526703
vt 0.212208 0.527739
vt 0.223024 0.525731
vt 0.201427 0.525554
vt 0.322215 0.502667
vt 0.326615 0.501481
vt 0.326977 0.505326
vt 0.322928 0.505672
vt 0.331092 0.501245
vt 0.335516 0.501978
vt 0.334725 0.505765
vt 0.330861 0.505363
vt 0.339717 0.503636
vt 0.343639 0.506124
vt 0.342943 0.507759
vt 0.338673 0.506556
vt 0.318054 0.504674
vt 0.318554 0.506370
vt 0.342725 0.509637
vt 0.338305 0.509475
vt 0.322988 0.508632
vt 0.318597 0.508232
vt 0.330651 0.509106
vt 0.326924 0.508884
vt 0.334382 0.509301
vt 0.322484 0.511568
vt 0.318191 0.510109
vt 0.330437 0.512881
vt 0.326525 0.512448
vt 0.338485 0.512458
vt 0.334372 0.512894
vt 0.342951 0.511521
vt 0.478843 0.539316
vt 0.473798 0.542828
vt 0.325666 0.516318
vt 0.321301 0.514512
vt 0.334790 0.516833
vt 0.330199 0.517098
vt 0.343639 0.513262
vt 0.339326 0.515532
vt 0.317302 0.511750
vt 0.204848 0.521380
vt 0.208427 0.520989
vt 0.208427 0.524316
vt 0.204848 0.523925
vt 0.212025 0.520852
vt 0.215623 0.520989
vt 0.215623 0.524316
vt 0.212025 0.524453
vt 0.219202 0.521380
vt 0.222755 0.521964
vt 0.222755 0.523341
vt 0.219202 0.523925
vt 0.201295 0.521964
vt 0.201295 0.523341
vt 0.477252 0.539267
vt 0.474305 0.541318
vt 0.201471 0.524737
vt 0.205024 0.524153
vt 0.205024 0.526699
vt 0.201471 0.526115
vt 0.208603 0.523763
vt 0.212201 0.523625
vt 0.212201 0.527226
vt 0.208603 0.527089
vt 0.215799 0.523763
vt 0.219378 0.524153
vt 0.219378 0.526699
vt 0.215799 0.527089
vt 0.476756 0.539380
vt 0.475341 0.540110
vt 0.474583 0.540893
vt 0.475759 0.539820
vt 0.222931 0.524737
vt 0.222931 0.526115
vt 0.414310 0.503170
vt 0.418825 0.502874
vt 0.418712 0.507121
vt 0.414657 0.507126
vt 0.423318 0.503409
vt 0.427667 0.504735
vt 0.426918 0.507796
vt 0.422762 0.507342
vt 0.409897 0.504264
vt 0.410483 0.507360
vt 0.431846 0.506732
vt 0.431350 0.508487
vt 0.405618 0.506037
vt 0.406022 0.507763
vt 0.414547 0.510906
vt 0.410363 0.510420
vt 0.422673 0.511125
vt 0.418602 0.511140
vt 0.431353 0.510323
vt 0.426877 0.510858
vt 0.405938 0.509597
vt 0.423046 0.515103
vt 0.418487 0.515415
vt 0.431846 0.512055
vt 0.427533 0.513953
vt 0.409544 0.513478
vt 0.405355 0.511355
vt 0.413966 0.514863
s 1
f 61/1/61 4/2/4 11/3/11
f 114/4/114 3/5/3 9/6/9 10/7/10
f 2/8/2 1/9/1 7/10/7 8/11/8
f 113/12/113 112/13/112 5/14/5 6/15/6
f 4/16/4 114/4/114 10/7/10 11/17/11
f 3/5/3 2/8/2 8/11/8 9/6/9
f 1/9/1 113/12/113 6/15/6 7/10/7
f 112/18/112 62/1/62 5/19/5
f 11/17/11 10/7/10 17/20/17 18/21/18
f 9/6/9 8/11/8 15/22/15 16/23/16
f 7/10/7 6/15/6 13/24/13 14/25/14
f 5/19/5 62/1/62 12/26/12
f 61/1/61 11/3/11 18/27/18
f 10/7/10 9/6/9 16/23/16 17/20/17
f 8/11/8 7/10/7 14/25/14 15/22/15
f 6/15/6 5/14/5 12/28/12 13/24/13
f 16/29/16 15/30/15 22/31/22 23/32/23
f 14/33/14 13/34/13 20/35/20 21/36/21
f 12/26/12 62/1/62 19/37/19
f 61/1/61 18/27/18 25/38/25
f 17/39/17 16/29/16 23/32/23 24/40/24
f 15/30/15 14/33/14 21/36/21 22/31/22
f 13/34/13 12/41/12 19/42/19 20/35/20
f 18/43/18 17/39/17 24/40/24 25/44/25
f 61/1/61 25/38/25 32/45/32
f 24/40/24 23/32/23 30/46/30 31/47/31
f 22/31/22 21/36/21 28/48/28 29/49/29
f 20/35/20 19/42/19 26/50/26 27/51/27
f 25/44/25 24/40/24 31/47/31 32/52/32
f 23/32/23 22/31/22 29/49/29 30/46/30
f 21/36/21 20/35/20 27/51/27 28/48/28
f 19/37/19 62/1/62 26/53/26
f 29/49/29 28/48/28 35/54/35 36/55/36
f 27/51/27 26/50/26 33/56/33 34/57/34
f 32/52/32 31/47/31 38/58/38 39/59/39
f 30/46/30 29/49/29 36/55/36 37/60/37
f 28/48/28 27/51/27 34/57/34 35/54/35
f 26/53/26 62/1/62 33/61/33
f 61/1/61 32/45/32 39/61/39
f 31/47/31 30/46/30 37/60/37 38/58/38
f 39/62/39 38/63/38 45/64/45 46/65/46
f 37/66/37 36/67/36 43/68/43 44/69/44
f 35/70/35 34/71/34 41/72/41 42/73/42
f 33/61/33 62/1/62 40/45/40
f 61/1/61 39/61/39 46/53/46
f 38/63/38 37/66/37 44/69/44 45/64/45
f 36/67/36 35/70/35 42/73/42 43/68/43
f 34/71/34 33/74/33 40/75/40 41/72/41
f 42/73/42 41/72/41 48/76/48 49/77/49
f 40/45/40 62/1/62 47/38/47
f 61/1/61 46/53/46 53/37/53
f 45/64/45 44/69/44 51/78/51 52/79/52
f 43/68/43 42/73/42 49/77/49 50/80/50
f 41/72/41 40/75/40 47/81/47 48/76/48
f 46/65/46 45/64/45 52/79/52 53/82/53
f 44/69/44 43/68/43 50/80/50 51/78/51
f 61/1/61 53/37/53 60/26/60
f 52/83/52 51/84/51 58/85/58 59/86/59
f 50/87/50 49/88/49 56/89/56 57/90/57
f 48/91/48 47/92/47 54/93/54 55/94/55
f 53/95/53 52/83/52 59/86/59 60/96/60
f 51/84/51 50/87/50 57/90/57 58/85/58
f 49/88/49 48/91/48 55/94/55 56/89/56
f 47/38/47 62/1/62 54/27/54
f 55/94/55 54/93/54 63/97/63 64/98/64
f 60/96/60 59/86/59 68/99/68 69/100/69
f 58/85/58 57/90/57 66/101/66 67/102/67
f 56/89/56 55/94/55 64/98/64 65/103/65
f 54/27/54 62/1/62 63/3/63
f 61/1/61 60/26/60 69/19/69
f 59/86/59 58/85/58 67/102/67 68/99/68
f 57/90/57 56/89/56 65/103/65 66/101/66
f 69/100/69 68/99/68 75/104/75 76/105/76
f 67/102/67 66/101/66 73/106/73 74/107/74
f 65/103/65 64/98/64 71/108/71 72/109/72
f 63/3/63 62/1/62 70/2/70
f 61/1/61 69/19/69 76/18/76
f 68/99/68 67/102/67 74/107/74 75/104/75
f 66/101/66 65/103/65 72/109/72 73/106/73
f 64/98/64 63/97/63 70/110/70 71/108/71
f 70/2/70 62/1/62 77/111/77
f 61/1/61 76/18/76 83/112/83
f 75/104/75 74/107/74 81/113/81 82/114/82
f 73/106/73 72/109/72 79/115/79 80/116/80
f 71/108/71 70/110/70 77/117/77 78/118/78
f 76/105/76 75/104/75 82/114/82 83/119/83
f 74/107/74 73/106/73 80/116/80 81/113/81
f 72/109/72 71/108/71 78/118/78 79/115/79
f 82/120/82 81/121/81 88/122/88 89/123/89
f 80/124/80 79/125/79 86/126/86 87/127/87
f 78/128/78 77/129/77 84/130/84 85/131/85
f 83/132/83 82/120/82 89/123/89 90/133/90
f 81/121/81 80/124/80 87/127/87 88/122/88
f 79/125/79 78/128/78 85/131/85 86/126/86
f 77/111/77 62/1/62 84/134/84
f 61/1/61 83/112/83 90/135/90
f 90/136/90 89/137/89 96/138/96 97/139/97
f 88/140/88 87/141/87 94/142/94 95/143/95
f 86/144/86 85/145/85 92/146/92 93/147/93
f 84/148/84 62/1/62 91/149/91
f 61/1/61 90/150/90 97/151/97
f 89/137/89 88/140/88 95/143/95 96/138/96
f 87/141/87 86/144/86 93/147/93 94/142/94
f 85/145/85 84/152/84 91/153/91 92/146/92
f 95/154/95 94/155/94 101/156/101 102/157/102
f 93/158/93 92/159/92 99/160/99 100/161/100
f 91/149/91 62/1/62 98/135/98
f 61/1/61 97/151/97 104/134/104
f 96/162/96 95/154/95 102/157/102 103/163/103
f 94/155/94 93/158/93 100/161/100 101/156/101
f 92/159/92 91/164/91 98/165/98 99/160/99
f 97/166/97 96/162/96 103/163/103 104/167/104
f 61/1/61 104/134/104 111/111/111
f 103/163/103 102/157/102 109/168/109 110/169/110
f 101/156/101 100/161/100 107/170/107 108/171/108
f 99/160/99 98/165/98 105/172/105 106/173/106
f 104/167/104 103/163/103 110/169/110 111/174/111
f 102/157/102 101/156/101 108/171/108 109/168/109
f 100/161/100 99/160/99 106/173/106 107/170/107
f 98/135/98 62/1/62 105/112/105
f 108/171/108 107/170/107 1/175/1 2/176/2
f 106/173/106 105/172/105 112/177/112 113/178/113
f 111/174/111 110/169/110 114/179/114 4/180/4
f 109/168/109 108/171/108 2/176/2 3/181/3
f 107/170/107 106/173/106 113/178/113 1/175/1
f 105/112/105 62/1/62 112/18/112
f 61/1/61 111/111/111 4/2/4
f 110/169/110 109/168/109 3/181/3 114/179/114
