# Blender 4.3.2
# www.blender.org
o Cube.005
v -0.653235 0.000000 0.574609
v -0.653235 0.600000 0.574609
v -0.653235 0.000000 -0.731890
v -0.653235 0.600000 -0.731890
v 0.653264 0.000000 0.574609
v 0.653264 0.600000 0.574609
v 0.653264 0.000000 -0.731890
v 0.653264 0.600000 -0.731890
v -0.749985 0.000000 -0.828641
v -0.749985 0.000000 0.671359
v -0.749985 0.600000 0.671359
v -0.749985 0.600000 -0.828641
v 0.750015 0.000000 -0.828641
v 0.750015 0.600000 -0.828641
v 0.750015 0.000000 0.671359
v 0.750015 0.600000 0.671359
vn -1.0000 -0.0000 -0.0000
vn -0.0000 -0.0000 -1.0000
vn 1.0000 -0.0000 -0.0000
vn -0.0000 -0.0000 1.0000
vn -0.0000 -1.0000 -0.0000
vn -0.0000 1.0000 -0.0000
vt 0.762743 0.028879
vt 0.762743 0.111096
vt 0.557200 0.111096
vt 0.557200 0.028879
vt 0.990134 0.017648
vt 0.990134 0.099865
vt 0.784590 0.099865
vt 0.784590 0.017648
vt 0.917262 0.082950
vt 0.917262 0.165168
vt 0.711718 0.165168
vt 0.711718 0.082950
vt 0.769279 0.146161
vt 0.769279 0.228379
vt 0.563736 0.228379
vt 0.563736 0.146161
vt 0.714289 0.131950
vt 0.714289 0.178943
vt 0.611961 0.178943
vt 0.611961 0.131950
vt 0.816616 0.131950
vt 0.816616 0.178943
vt 0.737126 0.124268
vt 0.737126 0.021941
vt 0.744704 0.014363
vt 0.744704 0.131846
vt 0.517212 0.124268
vt 0.619539 0.124268
vt 0.627117 0.131846
vt 0.509634 0.131846
vt 0.634799 0.124268
vt 0.627221 0.131846
vt 0.619539 0.021941
vt 0.627117 0.014363
vt 0.634799 0.021941
vt 0.627221 0.014363
vt 0.517212 0.021941
vt 0.509634 0.014363
vt 0.737126 0.021941
vt 0.744704 0.014363
vt 0.517212 0.124268
vt 0.509634 0.131846
vt 0.509634 0.178943
vt 0.509634 0.131950
vt 0.918943 0.131950
vt 0.918943 0.178943
s 0
f 10/1/1 11/2/1 12/3/1 9/4/1
f 9/5/2 12/6/2 14/7/2 13/8/2
f 13/9/3 14/10/3 16/11/3 15/12/3
f 15/13/4 16/14/4 11/15/4 10/16/4
f 7/17/4 8/18/4 4/19/4 3/20/4
f 5/21/1 6/22/1 8/18/1 7/17/1
f 3/23/5 1/24/5 10/25/5 9/26/5
f 2/27/6 4/28/6 12/29/6 11/30/6
f 7/31/5 3/23/5 9/26/5 13/32/5
f 4/28/6 8/33/6 14/34/6 12/29/6
f 5/35/5 7/31/5 13/32/5 15/36/5
f 8/33/6 6/37/6 16/38/6 14/34/6
f 1/39/5 5/35/5 15/36/5 10/40/5
f 6/37/6 2/41/6 11/42/6 16/38/6
f 3/20/3 4/19/3 2/43/3 1/44/3
f 1/45/2 2/46/2 6/22/2 5/21/2
o Cube.006
v 0.705015 0.000000 -0.783641
v 0.705015 0.600000 -0.783641
v 0.705015 0.000000 -0.873641
v 0.705015 0.600000 -0.873641
v 0.795015 0.000000 -0.783641
v 0.795015 0.600000 -0.783641
v 0.795015 0.000000 -0.873641
v 0.795015 0.600000 -0.873641
v 0.705015 0.666991 -0.783641
v 0.705015 0.666991 -0.873641
v 0.795015 0.666991 -0.873641
v 0.795015 0.666991 -0.783641
v 0.795015 0.600000 -0.078641
v 0.795015 0.666991 -0.078641
v 0.000015 0.600000 -0.873641
v 0.000015 0.666991 -0.873641
v 0.705015 0.600000 -1.003009
v 0.849383 0.600000 -0.928009
v 0.924383 0.600000 -0.783641
v 0.705015 0.666991 -1.003009
v 0.849383 0.666991 -0.928009
v 0.924383 0.666991 -0.783641
v 0.924383 0.666991 -0.078641
v 0.924383 0.600000 -0.078641
v 0.000015 0.600000 -1.003009
v 0.000015 0.666991 -1.003009
v 0.587952 0.600000 -0.666578
v 0.587952 0.666991 -0.666578
v 0.587952 0.600000 -0.078641
v 0.587952 0.666991 -0.078641
v 0.000015 0.600000 -0.666578
v 0.000015 0.666991 -0.666578
v -0.704985 0.000000 -0.783641
v -0.704985 0.600000 -0.783641
v -0.704985 0.000000 -0.873641
v -0.704985 0.600000 -0.873641
v -0.794985 0.000000 -0.783641
v -0.794985 0.600000 -0.783641
v -0.794985 0.000000 -0.873641
v -0.794985 0.600000 -0.873641
v -0.704985 0.666991 -0.783641
v -0.704985 0.666991 -0.873641
v -0.794985 0.666991 -0.873641
v -0.794985 0.666991 -0.783641
v -0.794985 0.600000 -0.078641
v -0.794985 0.666991 -0.078641
v -0.704985 0.600000 -1.003009
v -0.849354 0.600000 -0.928009
v -0.924354 0.600000 -0.783641
v -0.704985 0.666991 -1.003009
v -0.849354 0.666991 -0.928009
v -0.924354 0.666991 -0.783641
v -0.924354 0.666991 -0.078641
v -0.924354 0.600000 -0.078641
v -0.587923 0.600000 -0.666578
v -0.587923 0.666991 -0.666578
v -0.587923 0.600000 -0.078641
v -0.587923 0.666991 -0.078641
v 0.705015 0.000000 0.626359
v 0.705015 0.600000 0.626359
v 0.705015 0.000000 0.716359
v 0.705015 0.600000 0.716359
v 0.795015 0.000000 0.626359
v 0.795015 0.600000 0.626359
v 0.795015 0.000000 0.716359
v 0.795015 0.600000 0.716359
v 0.705015 0.666991 0.626359
v 0.705015 0.666991 0.716359
v 0.795015 0.666991 0.716359
v 0.795015 0.666991 0.626359
v 0.000015 0.600000 0.716359
v 0.000015 0.666991 0.716359
v 0.705015 0.600000 0.845728
v 0.849383 0.600000 0.770728
v 0.924383 0.600000 0.626359
v 0.705015 0.666991 0.845728
v 0.849383 0.666991 0.770728
v 0.924383 0.666991 0.626359
v 0.000015 0.600000 0.845728
v 0.000015 0.666991 0.845728
v 0.587952 0.600000 0.509297
v 0.587952 0.666991 0.509297
v 0.000015 0.600000 0.509297
v 0.000015 0.666991 0.509297
v -0.704985 0.000000 0.626359
v -0.704985 0.600000 0.626359
v -0.704985 0.000000 0.716359
v -0.704985 0.600000 0.716359
v -0.794985 0.000000 0.626359
v -0.794985 0.600000 0.626359
v -0.794985 0.000000 0.716359
v -0.794985 0.600000 0.716359
v -0.704985 0.666991 0.626359
v -0.704985 0.666991 0.716359
v -0.794985 0.666991 0.716359
v -0.794985 0.666991 0.626359
v -0.704985 0.600000 0.845728
v -0.849354 0.600000 0.770728
v -0.924354 0.600000 0.626359
v -0.704985 0.666991 0.845728
v -0.849354 0.666991 0.770728
v -0.924354 0.666991 0.626359
v -0.587923 0.600000 0.509297
v -0.587923 0.666991 0.509297
vn -1.0000 -0.0000 -0.0000
vn -0.0000 -0.0000 -1.0000
vn 1.0000 -0.0000 -0.0000
vn -0.0000 -0.0000 1.0000
vn -0.0000 -1.0000 -0.0000
vn -0.0000 1.0000 -0.0000
vn 0.7071 -0.0000 -0.7071
vn 0.2373 -0.0000 -0.9714
vn 0.9714 -0.0000 -0.2373
vn -0.7071 -0.0000 -0.7071
vn -0.2373 -0.0000 -0.9714
vn -0.9714 -0.0000 -0.2373
vn 0.7071 -0.0000 0.7071
vn 0.2373 -0.0000 0.9714
vn 0.9714 -0.0000 0.2373
vn -0.7071 -0.0000 0.7071
vn -0.2373 -0.0000 0.9714
vn -0.9714 -0.0000 0.2373
vt 0.105914 0.346127
vt 0.308973 0.346127
vt 0.308973 0.376586
vt 0.105914 0.376586
vt 0.308973 0.407045
vt 0.105914 0.407045
vt 0.167107 0.346127
vt 0.370166 0.346127
vt 0.370166 0.376586
vt 0.167107 0.376586
vt 0.370166 0.407045
vt 0.167107 0.407045
vt 0.578516 0.572947
vt 0.578516 0.633570
vt 0.517893 0.633570
vt 0.517893 0.572947
vt 0.333115 0.464460
vt 0.467029 0.464460
vt 0.467029 0.489033
vt 0.333115 0.489033
vt 0.304008 0.385673
vt 0.286912 0.385673
vt 0.286912 0.368578
vt 0.314335 0.396001
vt 0.286912 0.410247
vt 0.152998 0.385673
vt 0.152998 0.410247
vt 0.160772 0.463926
vt 0.160772 0.425973
vt 0.268537 0.425973
vt 0.289994 0.447430
vt 0.289994 0.463926
vt 0.333115 0.447364
vt 0.355351 0.425128
vt 0.467029 0.425128
vt 0.152998 0.346342
vt 0.264676 0.346342
vt 0.266021 0.367824
vt 0.286494 0.347351
vt 0.389320 0.347351
vt 0.389320 0.383564
vt 0.266021 0.383564
vt 0.382354 0.467595
vt 0.322527 0.467595
vt 0.322527 0.442959
vt 0.382354 0.442959
vt 0.281328 0.358289
vt 0.342049 0.358289
vt 0.342049 0.383293
vt 0.281328 0.383293
vt 0.063268 0.467595
vt 0.063268 0.442959
vt 0.018196 0.383293
vt 0.018196 0.358289
vt 0.316019 0.464460
vt 0.305692 0.474787
vt 0.306491 0.463926
vt 0.316456 0.473892
vt 0.289994 0.487639
vt 0.160772 0.487639
vt 0.389320 0.406190
vt 0.266021 0.406190
vt 0.250280 0.383564
vt 0.240772 0.393073
vt 0.270021 0.480810
vt 0.270021 0.454985
vt 0.496670 0.454985
vt 0.496670 0.480810
vt 0.069231 0.478336
vt 0.069231 0.443507
vt 0.374902 0.443507
vt 0.374902 0.478336
s 1
f 17/47/7 18/48/7 20/49/7 19/50/7
f 19/50/8 20/49/8 24/51/8 23/52/8
f 23/53/9 24/54/9 22/55/9 21/56/9
f 21/56/10 22/55/10 18/57/10 17/58/10
f 19/59/11 23/60/11 21/61/11 17/62/11
f 28/63/12 30/64/12 39/65/12 38/66/12
f 27/67/12 26/68/12 25/69/12
f 26/68/12 27/67/12 37/70/12 36/71/12
f 32/72/12 26/68/12 36/71/12 42/73/12
f 29/74/11 45/75/11 43/76/11 18/77/11 22/78/11
f 25/79/12 44/80/12 46/81/12 30/64/12 28/63/12
f 48/82/12 44/83/12 25/69/12 26/68/12 32/72/12
f 18/84/11 43/85/11 47/86/11 31/87/11 20/88/11
f 34/89/13 33/90/14 36/91/14 37/92/13
f 35/93/15 34/94/13 37/95/13 38/96/15
f 36/91/14 33/90/14 41/97/8 42/98/8
f 35/93/15 38/96/15 39/99/9 40/100/9
f 27/101/12 28/63/12 38/66/12 37/102/12
f 22/78/11 24/103/11 34/104/11 35/105/11
f 29/74/11 22/78/11 35/105/11 40/106/11
f 20/88/11 31/87/11 41/107/11 33/108/11
f 24/109/11 20/88/11 33/108/11 34/110/11
f 44/111/7 43/112/7 45/113/7 46/114/7
f 43/115/10 44/116/10 48/117/10 47/118/10
f 28/63/12 27/101/12 25/79/12
f 49/47/9 51/50/9 52/49/9 50/48/9
f 51/50/8 55/52/8 56/51/8 52/49/8
f 55/53/7 53/56/7 54/55/7 56/54/7
f 53/56/10 49/58/10 50/57/10 54/55/10
f 51/59/11 49/62/11 53/61/11 55/60/11
f 60/63/12 68/66/12 69/65/12 62/64/12
f 59/67/12 57/69/12 58/68/12
f 58/68/12 66/71/12 67/70/12 59/67/12
f 32/72/12 42/73/12 66/71/12 58/68/12
f 61/74/11 54/78/11 50/77/11 71/76/11 73/75/11
f 57/79/12 60/63/12 62/64/12 74/81/12 72/80/12
f 48/82/12 32/72/12 58/68/12 57/69/12 72/83/12
f 50/84/11 52/88/11 31/87/11 47/86/11 71/85/11
f 64/89/16 67/92/16 66/91/17 63/90/17
f 65/93/18 68/96/18 67/95/16 64/94/16
f 66/91/17 42/98/8 41/97/8 63/90/17
f 65/93/18 70/100/7 69/99/7 68/96/18
f 59/101/12 67/102/12 68/66/12 60/63/12
f 54/78/11 65/105/11 64/104/11 56/103/11
f 61/74/11 70/106/11 65/105/11 54/78/11
f 52/88/11 63/108/11 41/107/11 31/87/11
f 56/109/11 64/110/11 63/108/11 52/88/11
f 72/111/9 74/114/9 73/113/9 71/112/9
f 71/115/10 47/118/10 48/117/10 72/116/10
f 60/63/12 57/79/12 59/101/12
f 75/47/7 77/50/7 78/49/7 76/48/7
f 77/50/10 81/52/10 82/51/10 78/49/10
f 81/53/9 79/56/9 80/55/9 82/54/9
f 79/56/8 75/58/8 76/57/8 80/55/8
f 77/59/11 75/62/11 79/61/11 81/60/11
f 86/63/12 94/66/12 39/65/12 30/64/12
f 85/67/12 83/69/12 84/68/12
f 84/68/12 92/71/12 93/70/12 85/67/12
f 88/72/12 96/73/12 92/71/12 84/68/12
f 29/74/11 80/78/11 76/77/11 97/76/11 45/75/11
f 83/79/12 86/63/12 30/64/12 46/81/12 98/80/12
f 100/82/12 88/72/12 84/68/12 83/69/12 98/83/12
f 76/84/11 78/88/11 87/87/11 99/86/11 97/85/11
f 90/89/19 93/92/19 92/91/20 89/90/20
f 91/93/21 94/96/21 93/95/19 90/94/19
f 92/91/20 96/98/10 95/97/10 89/90/20
f 91/93/21 40/100/9 39/99/9 94/96/21
f 85/101/12 93/102/12 94/66/12 86/63/12
f 80/78/11 91/105/11 90/104/11 82/103/11
f 29/74/11 40/106/11 91/105/11 80/78/11
f 78/88/11 89/108/11 95/107/11 87/87/11
f 82/109/11 90/110/11 89/108/11 78/88/11
f 98/111/7 46/114/7 45/113/7 97/112/7
f 97/115/8 99/118/8 100/117/8 98/116/8
f 86/63/12 83/79/12 85/101/12
f 101/47/9 102/48/9 104/49/9 103/50/9
f 103/50/10 104/49/10 108/51/10 107/52/10
f 107/53/7 108/54/7 106/55/7 105/56/7
f 105/56/8 106/55/8 102/57/8 101/58/8
f 103/59/11 107/60/11 105/61/11 101/62/11
f 112/63/12 62/64/12 69/65/12 118/66/12
f 111/67/12 110/68/12 109/69/12
f 110/68/12 111/67/12 117/70/12 116/71/12
f 88/72/12 110/68/12 116/71/12 96/73/12
f 61/74/11 73/75/11 119/76/11 102/77/11 106/78/11
f 109/79/12 120/80/12 74/81/12 62/64/12 112/63/12
f 100/82/12 120/83/12 109/69/12 110/68/12 88/72/12
f 102/84/11 119/85/11 99/86/11 87/87/11 104/88/11
f 114/89/22 113/90/23 116/91/23 117/92/22
f 115/93/24 114/94/22 117/95/22 118/96/24
f 116/91/23 113/90/23 95/97/10 96/98/10
f 115/93/24 118/96/24 69/99/7 70/100/7
f 111/101/12 112/63/12 118/66/12 117/102/12
f 106/78/11 108/103/11 114/104/11 115/105/11
f 61/74/11 106/78/11 115/105/11 70/106/11
f 104/88/11 87/87/11 95/107/11 113/108/11
f 108/109/11 104/88/11 113/108/11 114/110/11
f 120/111/9 119/112/9 73/113/9 74/114/9
f 119/115/8 120/116/8 100/117/8 99/118/8
f 112/63/12 111/101/12 109/79/12
o Circle
v 0.675015 0.666991 -0.844620
v 0.588489 0.666991 -0.781755
v 0.621539 0.666991 -0.680037
v 0.728491 0.666991 -0.680037
v 0.761541 0.666991 -0.781755
v 0.675015 1.835450 -0.844620
v 0.588489 1.835450 -0.781755
v 0.621539 1.835450 -0.680037
v 0.728491 1.835450 -0.680037
v 0.761541 1.835450 -0.781755
v -0.674985 0.666991 -0.844620
v -0.588459 0.666991 -0.781755
v -0.621509 0.666991 -0.680037
v -0.728461 0.666991 -0.680037
v -0.761512 0.666991 -0.781755
v -0.674985 1.835450 -0.844620
v -0.588459 1.835450 -0.781755
v -0.621509 1.835450 -0.680037
v -0.728461 1.835450 -0.680037
v -0.761512 1.835450 -0.781755
v 0.675015 0.666991 0.687338
v 0.588489 0.666991 0.624473
v 0.621539 0.666991 0.522756
v 0.728491 0.666991 0.522756
v 0.761541 0.666991 0.624473
v 0.675015 1.835450 0.687338
v 0.588489 1.835450 0.624473
v 0.621539 1.835450 0.522756
v 0.728491 1.835450 0.522756
v 0.761541 1.835450 0.624473
v -0.674985 0.666991 0.687338
v -0.588459 0.666991 0.624473
v -0.621509 0.666991 0.522756
v -0.728461 0.666991 0.522756
v -0.761512 0.666991 0.624473
v -0.674985 1.835450 0.687338
v -0.588459 1.835450 0.624473
v -0.621509 1.835450 0.522756
v -0.728461 1.835450 0.522756
v -0.761512 1.835450 0.624473
vn -0.9511 -0.0000 0.3090
vn 0.5878 -0.0000 -0.8090
vn -0.0000 -0.0000 1.0000
vn -0.5878 -0.0000 -0.8090
vn 0.9511 -0.0000 0.3090
vn -0.9511 -0.0000 -0.3090
vn 0.5878 -0.0000 0.8090
vn -0.0000 -0.0000 -1.0000
vn -0.5878 -0.0000 0.8090
vn 0.9511 -0.0000 -0.3090
vt 0.518969 0.474474
vt 0.962206 0.474474
vt 0.962206 0.433903
vt 0.518969 0.433903
vt 0.518969 0.393332
vt 0.962206 0.393332
vt 0.962206 0.352762
vt 0.518969 0.352762
vt 0.518969 0.312191
vt 0.962206 0.312191
vt 0.962206 0.271620
vt 0.518969 0.271620
s 0
f 123/119/25 128/120/25 127/121/25 122/122/25
f 121/123/26 126/124/26 130/125/26 125/126/26
f 124/127/27 129/128/27 128/129/27 123/130/27
f 122/122/28 127/121/28 126/124/28 121/123/28
f 125/126/29 130/125/29 129/128/29 124/127/29
f 133/119/29 132/122/29 137/121/29 138/120/29
f 131/123/28 135/126/28 140/125/28 136/124/28
f 134/127/27 133/130/27 138/129/27 139/128/27
f 132/122/26 131/123/26 136/124/26 137/121/26
f 135/126/25 134/127/25 139/128/25 140/125/25
f 143/119/30 142/122/30 147/121/30 148/120/30
f 141/123/31 145/126/31 150/125/31 146/124/31
f 144/127/32 143/130/32 148/129/32 149/128/32
f 142/122/33 141/123/33 146/124/33 147/121/33
f 145/126/34 144/127/34 149/128/34 150/125/34
f 153/119/34 158/120/34 157/121/34 152/122/34
f 151/123/33 156/124/33 160/125/33 155/126/33
f 154/127/32 159/128/32 158/129/32 153/130/32
f 152/122/31 157/121/31 156/124/31 151/123/31
f 155/126/30 160/125/30 159/128/30 154/127/30
o Cube.007
v 0.600690 2.115794 0.905373
v 0.830196 1.773247 1.134880
v -0.524985 2.800889 0.063020
v -0.141646 2.800889 0.446359
v -1.213506 1.773247 0.751541
v -0.983999 2.115794 0.522034
v -0.141646 2.800889 -0.603641
v -0.524985 2.800889 -0.220302
v -0.754492 2.458342 0.292527
v -0.371153 2.458342 0.675866
v 0.141676 2.800889 0.446359
v 0.525015 2.800889 0.063020
v -0.600660 2.115794 0.905373
v -0.830167 1.773247 1.134880
v 0.525015 2.800889 -0.220302
v 0.141676 2.800889 -0.603641
v -1.059674 1.430699 1.364386
v -1.443012 1.430699 0.981048
v -1.443012 1.430699 -1.138329
v -1.059674 1.430699 -1.521668
v 1.443042 1.430699 0.981048
v 1.059703 1.430699 1.364386
v 1.059703 1.430699 -1.521668
v 1.443042 1.430699 -1.138329
v 0.371183 2.458342 0.675866
v -0.754492 2.458342 -0.449809
v -0.983999 2.115794 -0.679316
v -1.213506 1.773247 -0.908823
v -0.371153 2.458342 -0.833148
v -0.600660 2.115794 -1.062654
v -0.830167 1.773247 -1.292161
v 0.371183 2.458342 -0.833148
v 0.600690 2.115794 -1.062654
v 0.830196 1.773247 -1.292161
v 1.213535 1.773247 0.751541
v 0.984028 2.115794 0.522034
v 0.754522 2.458342 0.292527
v 1.213535 1.773247 -0.908823
v 0.984028 2.115794 -0.679316
v 0.754522 2.458342 -0.449809
v -1.361685 1.300889 0.998308
v -1.076934 1.300889 1.283059
v -1.076934 1.300889 -1.440340
v -1.361685 1.300889 -1.155590
v 1.361714 1.300889 -1.155590
v 1.076964 1.300889 -1.440340
v 1.076964 1.300889 1.283059
v 1.361714 1.300889 0.998308
v -0.908735 1.785804 0.758094
v -0.836720 1.785804 0.830109
v -0.836720 1.785804 -0.987391
v -0.908735 1.785804 -0.915376
v 0.908765 1.785804 -0.915376
v 0.836750 1.785804 -0.987391
v 0.836750 1.785804 0.830109
v 0.908765 1.785804 0.758094
v -0.897324 1.478416 0.895929
v -1.008223 1.300889 1.117175
v -1.195801 1.300889 0.929597
v -0.974555 1.478416 0.818698
v -0.974555 1.478416 -0.975980
v -1.195801 1.300889 -1.086878
v -1.008223 1.300889 -1.274456
v -0.897324 1.478416 -1.053211
v 0.974585 1.478416 0.818698
v 1.195830 1.300889 0.929597
v 1.008252 1.300889 1.117175
v 0.897354 1.478416 0.895929
v 0.897354 1.478416 -1.053211
v 1.008252 1.300889 -1.274456
v 1.195830 1.300889 -1.086878
v 0.974585 1.478416 -0.975980
vn -0.7066 0.6542 0.2698
vn -0.4773 0.8655 0.1519
vn -0.4773 0.8655 -0.1519
vn -0.7066 0.6542 -0.2698
vn 0.7066 0.6542 -0.2698
vn 0.6731 0.6662 -0.3212
vn 0.3212 0.6662 -0.6731
vn 0.2698 0.6542 -0.7066
vn 0.4773 0.8655 -0.1519
vn 0.1519 0.8655 -0.4773
vn -0.1519 0.8655 -0.4773
vn -0.1519 0.8655 0.4773
vn 0.1519 0.8655 0.4773
vn 0.4773 0.8655 0.1519
vn -0.2698 0.6542 -0.7066
vn -0.3212 0.6662 -0.6731
vn -0.6731 0.6662 -0.3212
vn 0.2698 0.6542 0.7066
vn 0.3212 0.6662 0.6731
vn 0.6731 0.6662 0.3212
vn 0.7066 0.6542 0.2698
vn -0.2698 0.6542 0.7066
vn -0.3212 0.6662 0.6731
vn -0.6731 0.6662 0.3212
vn -0.5410 -0.7918 0.2836
vn -0.2836 -0.7918 0.5410
vn -0.2822 -0.4821 0.8294
vn -0.8294 -0.4821 0.2822
vn -0.2836 -0.7918 -0.5410
vn -0.5410 -0.7918 -0.2836
vn -0.8294 -0.4821 -0.2822
vn -0.2822 -0.4821 -0.8294
vn 0.5410 -0.7918 -0.2836
vn 0.2836 -0.7918 -0.5410
vn 0.2822 -0.4821 -0.8294
vn 0.8294 -0.4821 -0.2822
vn 0.2836 -0.7918 0.5410
vn 0.5410 -0.7918 0.2836
vn 0.8294 -0.4821 0.2822
vn 0.2822 -0.4821 0.8294
vn -0.7294 -0.6126 -0.3045
vn -0.3045 -0.6126 -0.7294
vn -0.3462 -0.2612 -0.9011
vn -0.9011 -0.2612 -0.3462
vn 0.3045 -0.6126 -0.7294
vn 0.3462 -0.2612 -0.9011
vn -0.0920 -0.9722 0.2154
vn 0.0920 -0.9722 0.2154
vn -0.7294 -0.6126 0.3045
vn -0.9011 -0.2612 0.3462
vn 0.7294 -0.6126 0.3045
vn 0.3045 -0.6126 0.7294
vn 0.3462 -0.2612 0.9011
vn 0.9011 -0.2612 0.3462
vn -0.3045 -0.6126 0.7294
vn -0.3462 -0.2612 0.9011
vn -0.0920 -0.9722 -0.2154
vn -0.2154 -0.9722 -0.0920
vn 0.2154 -0.9722 -0.0920
vn 0.0920 -0.9722 -0.2154
vn -0.0000 -1.0000 -0.0000
vn -0.2154 -0.9722 0.0920
vn 0.2154 -0.9722 0.0920
vn 0.7294 -0.6126 -0.3045
vn 0.9011 -0.2612 -0.3462
vt 0.523174 0.882393
vt 0.490570 0.944353
vt 0.448157 0.944762
vt 0.412603 0.883680
vt 0.528398 0.717391
vt 0.559517 0.656226
vt 0.632082 0.683002
vt 0.601270 0.749904
vt 0.000261 0.882122
vt 0.000261 0.801592
vt 0.030024 0.771830
vt 0.110554 0.771830
vt 0.140316 0.801593
vt 0.140316 0.882123
vt 0.110553 0.911885
vt 0.030023 0.911885
vt 0.541311 0.717580
vt 0.572667 0.656154
vt 0.644767 0.684016
vt 0.613880 0.750707
vt 0.581614 0.723453
vt 0.612966 0.662022
vt 0.685079 0.689849
vt 0.654243 0.756542
vt 0.515767 0.845999
vt 0.482323 0.907575
vt 0.439977 0.907707
vt 0.405197 0.846581
vt 0.475374 0.840132
vt 0.442032 0.901716
vt 0.399676 0.901856
vt 0.364849 0.840724
vt 0.690570 0.721443
vt 0.662260 0.792131
vt 0.587911 0.759532
vt 0.618797 0.698798
vt 0.463156 0.840120
vt 0.430499 0.902015
vt 0.388094 0.902355
vt 0.352660 0.841223
vt 0.595148 0.919148
vt 0.562829 0.981321
vt 0.624050 0.676702
vt 0.685038 0.697597
vt 0.577647 0.634265
vt 0.640800 0.658667
vt 0.565033 0.634157
vt 0.627106 0.658709
vt 0.617947 0.640133
vt 0.681101 0.664503
vt 0.308237 0.699475
vt 0.305977 0.676702
vt 0.261220 0.657032
vt 0.258836 0.634265
vt 0.248547 0.656928
vt 0.246265 0.634157
vt 0.301531 0.662899
vt 0.299149 0.640133
vt 0.521453 0.768000
vt 0.536566 0.760972
vt 0.546965 0.807810
vt 0.532922 0.811867
vt 0.628914 0.856719
vt 0.555744 0.820831
vt 0.282441 0.718603
vt 0.495976 0.778624
vt 0.317334 0.779921
vt 0.295370 0.718301
vt 0.508640 0.778779
vt 0.329983 0.779521
vt 0.335679 0.724170
vt 0.548919 0.784629
vt 0.370301 0.785395
vt 0.587111 0.883720
vt 0.553757 0.945538
vt 0.621426 0.821372
vt 0.547010 0.877864
vt 0.513540 0.939689
vt 0.580914 0.815407
vt 0.535239 0.877039
vt 0.502690 0.939151
vt 0.568600 0.814583
vt 0.342058 0.761136
vt 0.377090 0.822426
vt 0.803595 0.760087
vt 0.795068 0.806679
vt 0.735973 0.698556
vt 0.436978 0.698812
vt 0.428024 0.673970
vt 0.746008 0.673970
vt 0.513381 0.754621
vt 0.780410 0.753736
vt 0.771883 0.800328
vt 0.523779 0.801459
vt 0.437721 0.748469
vt 0.452834 0.741441
vt 0.463233 0.788279
vt 0.449190 0.792336
vt 0.719863 0.740556
vt 0.711336 0.787148
vt 0.520710 0.718344
vt 0.487347 0.739905
vt 0.465519 0.724385
vt 0.511756 0.693501
vt 0.491413 0.753009
vt 0.458050 0.774570
vt 0.436222 0.759050
vt 0.482459 0.728166
vt 0.684215 0.231537
vt 0.675260 0.222590
vt 0.675260 0.014717
vt 0.684206 0.005762
vt 0.892079 0.005762
vt 0.901034 0.014709
vt 0.901034 0.222582
vt 0.892088 0.231537
vt 0.796520 0.711736
vt 0.497524 0.711993
vt 0.488571 0.687150
vt 0.806554 0.687150
vt 0.403615 0.720374
vt 0.381787 0.704854
vt 0.498268 0.761650
vt 0.509737 0.805516
vt 0.790408 0.752752
vt 0.800443 0.728166
vt 0.464162 0.733554
vt 0.442334 0.718035
vt 0.819705 0.718087
vt 0.829740 0.693501
vt 0.507269 0.795637
vt 0.774298 0.794752
vt 0.765771 0.841344
vt 0.517668 0.842475
vt 0.492156 0.802665
vt 0.503625 0.846532
s 1
f 169/131/35 163/132/36 168/133/37 186/134/38
f 198/135/39 184/136/40 183/137/41 194/138/42
f 175/139/43 176/140/44 167/141/45 168/142/37 163/143/36 164/144/46 171/145/47 172/146/48
f 191/147/49 180/148/50 179/149/51 188/150/38
f 162/151/52 182/152/53 181/153/54 195/154/55
f 185/155/52 171/156/47 164/157/46 170/158/56
f 189/159/49 167/160/45 176/161/44 192/162/42
f 177/163/57 174/164/56 165/165/35 178/166/58
f 200/167/39 175/168/43 172/169/48 197/170/55
f 170/171/56 164/172/46 163/132/36 169/131/35
f 201/173/59 202/174/60 177/163/61 178/166/62
f 203/175/63 204/176/64 179/149/65 180/148/66
f 205/177/67 206/178/68 183/137/69 184/136/70
f 207/179/71 208/180/72 181/153/73 182/152/74
f 178/166/62 179/181/65 204/182/64 201/173/59
f 180/148/66 183/183/69 206/184/68 203/175/63
f 184/136/70 181/185/73 208/186/72 205/177/67
f 182/152/74 177/187/61 202/188/60 207/179/71
f 225/189/75 228/190/76 215/191/77 216/192/78
f 174/164/56 173/193/56 166/194/35 165/165/35
f 173/193/56 170/171/56 169/131/35 166/194/35
f 184/136/40 198/135/39 195/195/55 181/185/54
f 198/135/39 199/196/39 196/197/55 195/195/55
f 199/196/39 200/167/39 197/170/55 196/197/55
f 180/148/50 191/147/49 194/198/42 183/183/41
f 191/147/49 190/199/49 193/200/42 194/198/42
f 190/199/49 189/159/49 192/162/42 193/200/42
f 182/152/53 162/151/52 174/201/56 177/187/57
f 162/151/52 161/202/52 173/203/56 174/201/56
f 161/202/52 185/155/52 170/158/56 173/203/56
f 171/156/47 185/155/52 197/204/55 172/205/48
f 185/155/52 161/202/52 196/206/55 197/204/55
f 161/202/52 162/151/52 195/154/55 196/206/55
f 167/160/45 189/159/49 186/207/38 168/208/37
f 189/159/49 190/199/49 187/209/38 186/207/38
f 190/199/49 191/147/49 188/150/38 187/209/38
f 175/168/43 200/167/39 192/210/42 176/211/44
f 200/167/39 199/196/39 193/212/42 192/210/42
f 199/196/39 198/135/39 194/138/42 193/212/42
f 178/166/58 165/165/35 188/213/38 179/181/51
f 165/165/35 166/194/35 187/214/38 188/213/38
f 166/194/35 169/131/35 186/134/38 187/214/38
f 228/190/76 217/215/79 210/216/80 215/191/77
f 230/217/81 223/218/82 203/219/63 206/220/68
f 232/221/83 225/222/75 216/223/78 213/224/84
f 221/225/85 224/226/86 211/227/87 212/228/88
f 224/226/86 229/229/89 214/230/90 211/227/87
f 227/231/91 226/232/92 208/233/72 207/234/71
f 219/235/93 218/236/94 202/237/60 201/238/59
f 212/239/95 211/240/95 214/241/95 213/242/95 216/243/95 215/244/95 210/245/95 209/246/95
f 226/247/92 231/248/96 205/249/67 208/250/72
f 223/218/82 222/251/97 204/252/64 203/219/63
f 229/253/89 232/221/83 213/224/84 214/254/90
f 222/255/97 219/235/93 201/238/59 204/256/64
f 231/248/96 230/257/81 206/258/68 205/249/67
f 218/259/94 227/231/91 207/234/71 202/260/60
f 220/261/98 221/262/85 212/263/88 209/264/99
f 220/261/98 217/265/79 218/236/94 219/235/93
f 224/226/86 221/225/85 222/251/97 223/218/82
f 232/221/83 229/253/89 230/257/81 231/248/96
f 228/190/76 225/189/75 226/232/92 227/231/91
f 221/262/85 220/261/98 219/235/93 222/255/97
f 229/229/89 224/226/86 223/218/82 230/217/81
f 225/222/75 232/221/83 231/248/96 226/247/92
f 217/215/79 228/190/76 227/231/91 218/259/94
f 217/265/79 220/261/98 209/264/99 210/266/80
