# Blender 4.3.2
# www.blender.org
o Circle.001
v 1.077900 0.000000 -1.220284
v 0.991374 0.000000 -1.157419
v 1.024424 0.000000 -1.055701
v 1.131377 0.000000 -1.055701
v 1.164427 0.000000 -1.157419
v 1.077900 1.477348 -1.220284
v 0.991374 1.477348 -1.157419
v 1.024424 1.477348 -1.055701
v 1.131377 1.477348 -1.055701
v 1.164427 1.477348 -1.157419
v -1.077861 0.000000 -1.220284
v -0.991335 0.000000 -1.157419
v -1.024385 0.000000 -1.055701
v -1.131337 0.000000 -1.055701
v -1.164387 0.000000 -1.157419
v -1.077861 1.477348 -1.220284
v -0.991335 1.477348 -1.157419
v -1.024385 1.477348 -1.055701
v -1.131337 1.477348 -1.055701
v -1.164387 1.477348 -1.157419
v 1.077900 0.000000 1.010575
v 0.991374 0.000000 0.947710
v 1.024424 0.000000 0.845992
v 1.131377 0.000000 0.845992
v 1.164427 0.000000 0.947710
v 1.077900 1.477348 1.010575
v 0.991374 1.477348 0.947710
v 1.024424 1.477348 0.845992
v 1.131377 1.477348 0.845992
v 1.164427 1.477348 0.947710
v -1.077861 0.000000 1.010575
v -0.991334 0.000000 0.947710
v -1.024384 0.000000 0.845992
v -1.131337 0.000000 0.845992
v -1.164387 0.000000 0.947710
v -1.077861 1.477347 1.010575
v -0.991334 1.477347 0.947710
v -1.024384 1.477347 0.845992
v -1.131337 1.477347 0.845992
v -1.164387 1.477347 0.947710
vn -0.0000 -0.0000 -1.0000
vn -0.9511 -0.0000 -0.3090
vn -0.5878 -0.0000 0.8090
vn 0.5878 -0.0000 0.8090
vn 0.9511 -0.0000 -0.3090
vn -0.0000 -0.0000 1.0000
vn -0.9511 -0.0000 0.3090
vn -0.5878 -0.0000 -0.8090
vn 0.5878 -0.0000 -0.8090
vn 0.9511 -0.0000 0.3090
vt 0.518969 0.229356
vt 0.962206 0.229356
vt 0.962206 0.188786
vt 0.518969 0.188786
vt 0.518969 0.148215
vt 0.962206 0.148215
vt 0.962206 0.107644
vt 0.518969 0.107644
vt 0.518969 0.067074
vt 0.962206 0.067074
vt 0.962206 0.026503
vt 0.518969 0.026503
s 1
f 3/1/3 8/2/3 7/3/2 2/4/2
f 1/5/1 6/6/1 10/7/5 5/8/5
f 4/9/4 9/10/4 8/11/3 3/12/3
f 2/4/2 7/3/2 6/6/1 1/5/1
f 5/8/5 10/7/5 9/10/4 4/9/4
f 13/1/4 12/4/5 17/3/5 18/2/4
f 11/5/1 15/8/2 20/7/2 16/6/1
f 14/9/3 13/12/4 18/11/4 19/10/3
f 12/4/5 11/5/1 16/6/1 17/3/5
f 15/8/2 14/9/3 19/10/3 20/7/2
f 23/1/8 22/4/7 27/3/7 28/2/8
f 21/5/6 25/8/10 30/7/10 26/6/6
f 24/9/9 23/12/8 28/11/8 29/10/9
f 22/4/7 21/5/6 26/6/6 27/3/7
f 25/8/10 24/9/9 29/10/9 30/7/10
f 33/1/9 38/2/9 37/3/10 32/4/10
f 31/5/6 36/6/6 40/7/7 35/8/7
f 34/9/8 39/10/8 38/11/9 33/12/9
f 32/4/10 37/3/10 36/6/6 31/5/6
f 35/8/7 40/7/7 39/10/8 34/9/8
o Cube.008
v 0.600690 2.115794 0.905373
v 0.830196 1.773247 1.134880
v -0.524985 2.800889 0.063020
v -0.141646 2.800889 0.446359
v -1.213506 1.773247 0.751541
v -0.983999 2.115794 0.522034
v -0.141646 2.800889 -0.603641
v -0.524985 2.800889 -0.220302
v -0.754492 2.458342 0.292527
v -0.371153 2.458342 0.675866
v 0.141676 2.800889 0.446359
v 0.525015 2.800889 0.063020
v -0.600660 2.115794 0.905373
v -0.830167 1.773247 1.134880
v 0.525015 2.800889 -0.220302
v 0.141676 2.800889 -0.603641
v -1.059674 1.430699 1.364386
v -1.443012 1.430699 0.981048
v -1.443012 1.430699 -1.138329
v -1.059674 1.430699 -1.521668
v 1.443042 1.430699 0.981048
v 1.059703 1.430699 1.364386
v 1.059703 1.430699 -1.521668
v 1.443042 1.430699 -1.138329
v 0.371183 2.458342 0.675866
v -0.754492 2.458342 -0.449809
v -0.983999 2.115794 -0.679316
v -1.213506 1.773247 -0.908823
v -0.371153 2.458342 -0.833148
v -0.600660 2.115794 -1.062654
v -0.830167 1.773247 -1.292161
v 0.371183 2.458342 -0.833148
v 0.600690 2.115794 -1.062654
v 0.830196 1.773247 -1.292161
v 1.213535 1.773247 0.751541
v 0.984028 2.115794 0.522034
v 0.754522 2.458342 0.292527
v 1.213535 1.773247 -0.908823
v 0.984028 2.115794 -0.679316
v 0.754522 2.458342 -0.449809
v -1.361685 1.300889 0.998308
v -1.076934 1.300889 1.283059
v -1.076934 1.300889 -1.440340
v -1.361685 1.300889 -1.155590
v 1.361714 1.300889 -1.155590
v 1.076964 1.300889 -1.440340
v 1.076964 1.300889 1.283059
v 1.361714 1.300889 0.998308
v -0.908735 1.785804 0.758094
v -0.836720 1.785804 0.830109
v -0.836720 1.785804 -0.987391
v -0.908735 1.785804 -0.915376
v 0.908765 1.785804 -0.915376
v 0.836750 1.785804 -0.987391
v 0.836750 1.785804 0.830109
v 0.908765 1.785804 0.758094
v -0.897324 1.478416 0.895929
v -1.008223 1.300889 1.117175
v -1.195801 1.300889 0.929597
v -0.974555 1.478416 0.818698
v -0.974555 1.478416 -0.975980
v -1.195801 1.300889 -1.086878
v -1.008223 1.300889 -1.274456
v -0.897324 1.478416 -1.053211
v 0.974585 1.478416 0.818698
v 1.195830 1.300889 0.929597
v 1.008252 1.300889 1.117175
v 0.897354 1.478416 0.895929
v 0.897354 1.478416 -1.053211
v 1.008252 1.300889 -1.274456
v 1.195830 1.300889 -1.086878
v 0.974585 1.478416 -0.975980
vn -0.7066 0.6542 0.2698
vn -0.4773 0.8655 0.1519
vn -0.4773 0.8655 -0.1519
vn -0.7066 0.6542 -0.2698
vn 0.7066 0.6542 -0.2698
vn 0.6731 0.6662 -0.3212
vn 0.3212 0.6662 -0.6731
vn 0.2698 0.6542 -0.7066
vn 0.4773 0.8655 -0.1519
vn 0.1519 0.8655 -0.4773
vn -0.1519 0.8655 -0.4773
vn -0.1519 0.8655 0.4773
vn 0.1519 0.8655 0.4773
vn 0.4773 0.8655 0.1519
vn -0.2698 0.6542 -0.7066
vn -0.3212 0.6662 -0.6731
vn -0.6731 0.6662 -0.3212
vn 0.2698 0.6542 0.7066
vn 0.3212 0.6662 0.6731
vn 0.6731 0.6662 0.3212
vn 0.7066 0.6542 0.2698
vn -0.2698 0.6542 0.7066
vn -0.3212 0.6662 0.6731
vn -0.6731 0.6662 0.3212
vn -0.5410 -0.7918 0.2836
vn -0.2836 -0.7918 0.5410
vn -0.2822 -0.4821 0.8294
vn -0.8294 -0.4821 0.2822
vn -0.2836 -0.7918 -0.5410
vn -0.5410 -0.7918 -0.2836
vn -0.8294 -0.4821 -0.2822
vn -0.2822 -0.4821 -0.8294
vn 0.5410 -0.7918 -0.2836
vn 0.2836 -0.7918 -0.5410
vn 0.2822 -0.4821 -0.8294
vn 0.8294 -0.4821 -0.2822
vn 0.2836 -0.7918 0.5410
vn 0.5410 -0.7918 0.2836
vn 0.8294 -0.4821 0.2822
vn 0.2822 -0.4821 0.8294
vn -0.7294 -0.6126 -0.3045
vn -0.3045 -0.6126 -0.7294
vn -0.3462 -0.2612 -0.9011
vn -0.9011 -0.2612 -0.3462
vn 0.3045 -0.6126 -0.7294
vn 0.3462 -0.2612 -0.9011
vn -0.0920 -0.9722 0.2154
vn 0.0920 -0.9722 0.2154
vn -0.7294 -0.6126 0.3045
vn -0.9011 -0.2612 0.3462
vn 0.7294 -0.6126 0.3045
vn 0.3045 -0.6126 0.7294
vn 0.3462 -0.2612 0.9011
vn 0.9011 -0.2612 0.3462
vn -0.3045 -0.6126 0.7294
vn -0.3462 -0.2612 0.9011
vn -0.0920 -0.9722 -0.2154
vn -0.2154 -0.9722 -0.0920
vn 0.2154 -0.9722 -0.0920
vn 0.0920 -0.9722 -0.2154
vn -0.0000 -1.0000 -0.0000
vn -0.2154 -0.9722 0.0920
vn 0.2154 -0.9722 0.0920
vn 0.7294 -0.6126 -0.3045
vn 0.9011 -0.2612 -0.3462
vt 0.523174 0.882393
vt 0.490570 0.944353
vt 0.448157 0.944762
vt 0.412603 0.883680
vt 0.528398 0.717391
vt 0.559517 0.656226
vt 0.632082 0.683002
vt 0.601270 0.749904
vt 0.000261 0.882122
vt 0.000261 0.801592
vt 0.030024 0.771830
vt 0.110554 0.771830
vt 0.140316 0.801593
vt 0.140316 0.882123
vt 0.110553 0.911885
vt 0.030023 0.911885
vt 0.541311 0.717580
vt 0.572667 0.656154
vt 0.644767 0.684016
vt 0.613880 0.750707
vt 0.581614 0.723453
vt 0.612966 0.662022
vt 0.685079 0.689849
vt 0.654243 0.756542
vt 0.515767 0.845999
vt 0.482323 0.907575
vt 0.439977 0.907707
vt 0.405197 0.846581
vt 0.475374 0.840132
vt 0.442032 0.901716
vt 0.399676 0.901856
vt 0.364849 0.840724
vt 0.690570 0.721443
vt 0.662260 0.792131
vt 0.587911 0.759532
vt 0.618797 0.698798
vt 0.463156 0.840120
vt 0.430499 0.902015
vt 0.388094 0.902355
vt 0.352660 0.841223
vt 0.595148 0.919148
vt 0.562829 0.981321
vt 0.624050 0.676702
vt 0.685038 0.697597
vt 0.577647 0.634265
vt 0.640800 0.658667
vt 0.565033 0.634157
vt 0.627106 0.658709
vt 0.617947 0.640133
vt 0.681101 0.664503
vt 0.308237 0.699475
vt 0.305977 0.676702
vt 0.261220 0.657032
vt 0.258836 0.634265
vt 0.248547 0.656928
vt 0.246265 0.634157
vt 0.301531 0.662899
vt 0.299149 0.640133
vt 0.521453 0.768000
vt 0.536566 0.760972
vt 0.546965 0.807810
vt 0.532922 0.811867
vt 0.628914 0.856719
vt 0.555744 0.820831
vt 0.282441 0.718603
vt 0.495976 0.778624
vt 0.317334 0.779921
vt 0.295370 0.718301
vt 0.508640 0.778779
vt 0.329983 0.779521
vt 0.335679 0.724170
vt 0.548919 0.784629
vt 0.370301 0.785395
vt 0.587111 0.883720
vt 0.553757 0.945538
vt 0.621426 0.821372
vt 0.547010 0.877864
vt 0.513540 0.939689
vt 0.580914 0.815407
vt 0.535239 0.877039
vt 0.502690 0.939151
vt 0.568600 0.814583
vt 0.342058 0.761136
vt 0.377090 0.822426
vt 0.803595 0.760087
vt 0.795068 0.806679
vt 0.735973 0.698556
vt 0.436978 0.698812
vt 0.428024 0.673970
vt 0.746008 0.673970
vt 0.513381 0.754621
vt 0.780410 0.753736
vt 0.771883 0.800328
vt 0.523779 0.801459
vt 0.437721 0.748469
vt 0.452834 0.741441
vt 0.463233 0.788279
vt 0.449190 0.792336
vt 0.719863 0.740556
vt 0.711336 0.787148
vt 0.520710 0.718344
vt 0.487347 0.739905
vt 0.465519 0.724385
vt 0.511756 0.693501
vt 0.491413 0.753009
vt 0.458050 0.774570
vt 0.436222 0.759050
vt 0.482459 0.728166
vt 0.684215 0.231537
vt 0.675260 0.222590
vt 0.675260 0.014717
vt 0.684206 0.005762
vt 0.892079 0.005762
vt 0.901034 0.014709
vt 0.901034 0.222582
vt 0.892088 0.231537
vt 0.796520 0.711736
vt 0.497524 0.711993
vt 0.488571 0.687150
vt 0.806554 0.687150
vt 0.403615 0.720374
vt 0.381787 0.704854
vt 0.498268 0.761650
vt 0.509737 0.805516
vt 0.790408 0.752752
vt 0.800443 0.728166
vt 0.464162 0.733554
vt 0.442334 0.718035
vt 0.819705 0.718087
vt 0.829740 0.693501
vt 0.507269 0.795637
vt 0.774298 0.794752
vt 0.765771 0.841344
vt 0.517668 0.842475
vt 0.492156 0.802665
vt 0.503625 0.846532
s 1
f 49/13/11 43/14/12 48/15/13 66/16/14
f 78/17/15 64/18/16 63/19/17 74/20/18
f 55/21/19 56/22/20 47/23/21 48/24/13 43/25/12 44/26/22 51/27/23 52/28/24
f 71/29/25 60/30/26 59/31/27 68/32/14
f 42/33/28 62/34/29 61/35/30 75/36/31
f 65/37/28 51/38/23 44/39/22 50/40/32
f 69/41/25 47/42/21 56/43/20 72/44/18
f 57/45/33 54/46/32 45/47/11 58/48/34
f 80/49/15 55/50/19 52/51/24 77/52/31
f 50/53/32 44/54/22 43/14/12 49/13/11
f 81/55/35 82/56/36 57/45/37 58/48/38
f 83/57/39 84/58/40 59/31/41 60/30/42
f 85/59/43 86/60/44 63/19/45 64/18/46
f 87/61/47 88/62/48 61/35/49 62/34/50
f 58/48/38 59/63/41 84/64/40 81/55/35
f 60/30/42 63/65/45 86/66/44 83/57/39
f 64/18/46 61/67/49 88/68/48 85/59/43
f 62/34/50 57/69/37 82/70/36 87/61/47
f 105/71/51 108/72/52 95/73/53 96/74/54
f 54/46/32 53/75/32 46/76/11 45/47/11
f 53/75/32 50/53/32 49/13/11 46/76/11
f 64/18/16 78/17/15 75/77/31 61/67/30
f 78/17/15 79/78/15 76/79/31 75/77/31
f 79/78/15 80/49/15 77/52/31 76/79/31
f 60/30/26 71/29/25 74/80/18 63/65/17
f 71/29/25 70/81/25 73/82/18 74/80/18
f 70/81/25 69/41/25 72/44/18 73/82/18
f 62/34/29 42/33/28 54/83/32 57/69/33
f 42/33/28 41/84/28 53/85/32 54/83/32
f 41/84/28 65/37/28 50/40/32 53/85/32
f 51/38/23 65/37/28 77/86/31 52/87/24
f 65/37/28 41/84/28 76/88/31 77/86/31
f 41/84/28 42/33/28 75/36/31 76/88/31
f 47/42/21 69/41/25 66/89/14 48/90/13
f 69/41/25 70/81/25 67/91/14 66/89/14
f 70/81/25 71/29/25 68/32/14 67/91/14
f 55/50/19 80/49/15 72/92/18 56/93/20
f 80/49/15 79/78/15 73/94/18 72/92/18
f 79/78/15 78/17/15 74/20/18 73/94/18
f 58/48/34 45/47/11 68/95/14 59/63/27
f 45/47/11 46/76/11 67/96/14 68/95/14
f 46/76/11 49/13/11 66/16/14 67/96/14
f 108/72/52 97/97/55 90/98/56 95/73/53
f 110/99/57 103/100/58 83/101/39 86/102/44
f 112/103/59 105/104/51 96/105/54 93/106/60
f 101/107/61 104/108/62 91/109/63 92/110/64
f 104/108/62 109/111/65 94/112/66 91/109/63
f 107/113/67 106/114/68 88/115/48 87/116/47
f 99/117/69 98/118/70 82/119/36 81/120/35
f 92/121/71 91/122/71 94/123/71 93/124/71 96/125/71 95/126/71 90/127/71 89/128/71
f 106/129/68 111/130/72 85/131/43 88/132/48
f 103/100/58 102/133/73 84/134/40 83/101/39
f 109/135/65 112/103/59 93/106/60 94/136/66
f 102/137/73 99/117/69 81/120/35 84/138/40
f 111/130/72 110/139/57 86/140/44 85/131/43
f 98/141/70 107/113/67 87/116/47 82/142/36
f 100/143/74 101/144/61 92/145/64 89/146/75
f 100/143/74 97/147/55 98/118/70 99/117/69
f 104/108/62 101/107/61 102/133/73 103/100/58
f 112/103/59 109/135/65 110/139/57 111/130/72
f 108/72/52 105/71/51 106/114/68 107/113/67
f 101/144/61 100/143/74 99/117/69 102/137/73
f 109/111/65 104/108/62 103/100/58 110/99/57
f 105/104/51 112/103/59 111/130/72 106/129/68
f 97/97/55 108/72/52 107/113/67 98/141/70
f 97/147/55 100/143/74 89/146/75 90/148/56
o Circle.003
v 0.000020 1.195691 -1.195045
v 0.000020 1.133168 -1.149620
v 0.000020 1.157050 -1.076119
v 0.000020 1.234333 -1.076119
v 0.000020 1.258214 -1.149620
v 1.071677 1.133168 -1.149620
v 1.071677 1.157050 -1.076119
v 1.071677 1.258214 -1.149620
v 1.071677 1.195691 -1.195045
v 1.071677 1.234333 -1.076119
v 1.143641 1.195691 -0.078641
v 1.098215 1.133168 -0.078641
v 1.024715 1.157050 -0.078641
v 1.024715 1.234333 -0.078641
v 1.098215 1.258214 -0.078641
v 1.098215 1.133168 -1.155720
v 1.024715 1.157050 -1.155720
v 1.098215 1.258214 -1.155720
v 1.143641 1.195691 -1.155720
v 1.024715 1.234333 -1.155720
v -1.071638 1.133168 -1.149619
v -1.071638 1.157050 -1.076119
v -1.071638 1.258214 -1.149619
v -1.071638 1.195691 -1.195045
v -1.071638 1.234333 -1.076119
v -1.143601 1.195691 -0.078641
v -1.098176 1.133168 -0.078641
v -1.024675 1.157050 -0.078641
v -1.024675 1.234333 -0.078641
v -1.098176 1.258214 -0.078641
v -1.098176 1.133168 -1.155719
v -1.024676 1.157050 -1.155719
v -1.098176 1.258214 -1.155719
v -1.143601 1.195691 -1.155719
v -1.024676 1.234333 -1.155719
v 0.000020 1.195691 0.985336
v 0.000020 1.133168 0.939911
v 0.000020 1.157050 0.866410
v 0.000020 1.234333 0.866410
v 0.000020 1.258214 0.939911
v 1.071677 1.133168 0.939911
v 1.071677 1.157050 0.866410
v 1.071677 1.258214 0.939911
v 1.071677 1.195691 0.985336
v 1.071677 1.234333 0.866410
v 1.143641 1.195691 -0.131068
v 1.098215 1.133168 -0.131068
v 1.024715 1.157050 -0.131068
v 1.024715 1.234332 -0.131068
v 1.098215 1.258214 -0.131068
v 1.098215 1.133168 0.946011
v 1.024715 1.157050 0.946011
v 1.098215 1.258214 0.946011
v 1.143641 1.195691 0.946010
v 1.024715 1.234333 0.946011
v -1.071637 1.133168 0.939911
v -1.071638 1.157050 0.866410
v -1.071637 1.258214 0.939911
v -1.071637 1.195691 0.985336
v -1.071638 1.234333 0.866410
v -1.143601 1.195691 -0.131068
v -1.098175 1.133168 -0.131068
v -1.024675 1.157050 -0.131068
v -1.024675 1.234332 -0.131068
v -1.098176 1.258214 -0.131068
v -1.098176 1.133168 0.946010
v -1.024675 1.157050 0.946010
v -1.098176 1.258214 0.946010
v -1.143601 1.195691 0.946010
v -1.024675 1.234333 0.946010
vn -0.0000 -0.0000 -1.0000
vn -0.0000 -0.9511 -0.3090
vn -0.0000 -0.5878 0.8090
vn -0.0000 0.5878 0.8090
vn -0.0000 0.9511 -0.3090
vn 1.0000 -0.0000 -0.0000
vn 0.3090 -0.9511 -0.0000
vn -0.8090 -0.5878 -0.0000
vn -0.8090 0.5878 -0.0000
vn 0.3090 0.9511 -0.0000
vn -1.0000 -0.0000 -0.0000
vn -0.3090 -0.9511 -0.0000
vn 0.8090 -0.5878 -0.0000
vn 0.8090 0.5878 -0.0000
vn -0.3090 0.9511 -0.0000
vn -0.0000 -0.0000 1.0000
vn -0.0000 -0.9511 0.3090
vn -0.0000 -0.5878 -0.8090
vn -0.0000 0.5878 -0.8090
vn -0.0000 0.9511 0.3090
vt 0.740588 0.229356
vt 0.962206 0.229356
vt 0.962206 0.188786
vt 0.740588 0.188786
vt 0.740588 0.148215
vt 0.962206 0.148215
vt 0.962206 0.107644
vt 0.740588 0.107644
vt 0.740588 0.067074
vt 0.962206 0.067074
vt 0.962206 0.026503
vt 0.740588 0.026503
vt 0.518969 0.107644
vt 0.518969 0.067074
vt 0.518969 0.188786
vt 0.518969 0.148215
vt 0.518969 0.026503
vt 0.518969 0.229356
s 1
f 119/149/78 115/150/78 114/151/77 118/152/77
f 121/153/76 113/154/76 117/155/80 120/156/80
f 122/157/79 116/158/79 115/159/78 119/160/78
f 118/152/77 114/151/77 113/154/76 121/153/76
f 120/156/80 117/155/80 116/158/79 122/157/79
f 127/161/85 130/156/85 132/157/84 126/162/84
f 124/163/82 128/152/82 131/153/81 123/164/81
f 126/162/84 132/157/84 129/160/83 125/165/83
f 123/164/81 131/153/81 130/156/85 127/161/85
f 125/166/83 129/149/83 128/152/82 124/163/82
f 134/149/78 133/152/77 114/151/77 115/150/78
f 136/153/76 135/156/80 117/155/80 113/154/76
f 137/157/79 134/160/78 115/159/78 116/158/79
f 133/152/77 136/153/76 113/154/76 114/151/77
f 135/156/80 137/157/79 116/158/79 117/155/80
f 142/161/90 141/162/89 147/157/89 145/156/90
f 139/163/87 138/164/86 146/153/86 143/152/87
f 141/162/89 140/165/88 144/160/88 147/157/89
f 138/164/86 142/161/90 145/156/90 146/153/86
f 140/166/88 139/163/87 143/152/87 144/149/88
f 154/149/93 153/152/92 149/151/92 150/150/93
f 156/153/91 155/156/95 152/155/95 148/154/91
f 157/157/94 154/160/93 150/159/93 151/158/94
f 153/152/92 156/153/91 148/154/91 149/151/92
f 155/156/95 157/157/94 151/158/94 152/155/95
f 162/161/85 161/162/84 167/157/84 165/156/85
f 159/163/82 158/164/81 166/153/81 163/152/82
f 161/162/84 160/165/83 164/160/83 167/157/84
f 158/164/81 162/161/85 165/156/85 166/153/81
f 160/166/83 159/163/82 163/152/82 164/149/83
f 169/149/93 150/150/93 149/151/92 168/152/92
f 171/153/91 148/154/91 152/155/95 170/156/95
f 172/157/94 151/158/94 150/159/93 169/160/93
f 168/152/92 149/151/92 148/154/91 171/153/91
f 170/156/95 152/155/95 151/158/94 172/157/94
f 177/161/90 180/156/90 182/157/89 176/162/89
f 174/163/87 178/152/87 181/153/86 173/164/86
f 176/162/89 182/157/89 179/160/88 175/165/88
f 173/164/86 181/153/86 180/156/90 177/161/90
f 175/166/88 179/149/88 178/152/87 174/163/87
