# Blender 4.3.2
# www.blender.org
o Cube.022
v 2.569418 1.008910 -1.190234
v 2.517020 0.197961 -1.229654
v 2.426589 1.801087 1.298171
v 2.484070 1.000000 1.251898
v 2.467398 0.218337 1.379088
v 2.503902 1.780935 -0.835150
v -2.146473 0.312417 0.979143
v -2.159252 1.000000 1.033440
v -2.174410 1.803901 1.069098
v -2.148601 1.747420 -1.107746
v -2.286701 1.000000 -1.274991
v -2.185669 0.258084 -1.196699
v -0.368427 0.179639 -1.127270
v 0.879762 1.868508 -1.082806
v 0.591787 0.160295 1.352676
v -0.528167 1.845842 1.263450
v -0.540023 1.000000 1.553850
v 0.903159 1.000000 -1.337481
v 0.889956 0.172954 -1.198680
v -0.360068 1.814494 -0.989023
v -0.534426 0.151068 1.400175
v 0.585883 1.833985 1.212262
v 0.598452 1.000000 1.414448
v -0.377083 1.000000 -1.284148
v 1.916380 1.816170 1.254610
v -1.743327 1.877451 1.160184
v -1.762387 0.139868 1.259566
v 1.940835 0.242736 1.295079
v -1.708983 1.000000 1.333692
v 2.538840 0.550743 -1.062671
v 2.565484 0.522821 1.364658
v 2.558676 1.498721 -0.930798
v 2.493651 1.467045 1.240412
v 2.046288 1.000000 -1.285199
v 2.063339 0.207683 -1.253440
v 1.913935 1.000000 1.350387
v 2.028875 1.793067 -1.117873
v -2.181980 1.466649 0.979927
v -2.291038 0.532789 -1.234927
v -2.257575 0.523512 1.115161
v -2.255072 1.473116 -1.193882
v -1.749111 0.163402 -1.302248
v -1.696342 1.000000 -1.310080
v -1.717647 1.834795 -1.178221
v 2.504708 1.848084 0.148818
v -2.258584 0.123007 -0.070086
v 2.522486 0.163666 0.136478
v 2.792501 1.000000 0.173751
v -2.317979 1.000000 -0.063930
v -2.217390 1.838440 -0.070745
v -2.276511 0.192613 0.937201
v -2.257185 0.226439 -1.057587
v -2.267380 1.866818 -1.011701
v -2.225787 1.780620 0.844802
v 2.579358 0.145821 -1.008253
v 2.521487 0.261634 1.161282
v 2.521485 1.849682 1.132390
v 2.585220 1.845942 -0.627762
v -2.288002 1.000000 0.801042
v -2.442736 1.000000 -1.087324
v 2.753452 1.022032 -0.994165
v 2.819292 1.000000 1.220201
v -1.721083 1.482622 -1.282304
v 0.900780 1.486748 -1.234507
v 1.930439 1.472547 1.333414
v -0.548006 1.472344 1.399080
v 0.839878 0.025364 -0.916637
v -0.331739 1.927115 -0.742677
v -0.558056 0.532518 1.506945
v 2.090324 0.531017 -1.330156
v 0.914835 0.514643 -1.363622
v -0.335448 0.017047 -0.859613
v -0.394431 0.506073 -1.337028
v 0.611505 0.503635 1.556678
v -2.440486 0.520035 0.912213
v -1.706127 2.041611 -1.024107
v 0.600029 1.447984 1.274519
v -0.379958 1.480290 -1.169474
v -0.499846 0.063055 1.043145
v 0.569183 2.000484 0.960464
v -1.722918 1.479292 1.200028
v 1.987206 1.881096 -0.941217
v -1.698468 1.882551 0.882619
v 1.912520 0.130583 1.136494
v 1.886077 1.907129 1.053590
v -1.769709 0.510638 1.356669
v 2.751070 1.569237 -0.776567
v 2.796116 1.503772 1.172840
v 2.795625 0.543622 1.181120
v -2.461214 1.493955 -1.039271
v 0.836284 1.928254 -0.782342
v 1.966680 0.535683 1.390803
v 0.561586 -0.019482 1.025561
v 2.053620 1.476277 -1.251950
v -2.383209 1.477373 0.841575
v 2.789615 0.490640 -1.002225
v -2.456774 0.532156 -1.067079
v -0.487431 1.964653 0.987542
v 2.017358 0.019126 -1.091303
v -1.718542 -0.001518 -1.111789
v -1.751801 0.526138 -1.338659
v 1.876857 2.008206 0.047075
v -1.660073 -0.044690 -0.092451
v -0.380464 -0.034203 0.068619
v 0.673709 1.997356 0.096113
v -0.365429 2.070293 0.116377
v 0.662535 -0.071925 0.032231
v 1.878312 0.005519 0.015127
v 2.772437 0.548212 0.168183
v 2.761735 1.483020 0.173948
v -2.414782 0.521183 -0.058190
v -2.309179 1.445219 -0.067642
v -1.644559 1.952873 -0.081067
v -1.728529 -0.004106 1.001603
vn 0.4549 0.1043 -0.8844
vn 0.4057 -0.3324 -0.8514
vn 0.1847 0.4895 0.8522
vn 0.1880 0.0917 0.9779
vn 0.2653 -0.6342 0.7262
vn 0.4537 0.6461 -0.6137
vn -0.4930 -0.4722 0.7307
vn -0.6395 0.1476 0.7544
vn -0.5513 0.5186 0.6535
vn -0.2848 0.4194 -0.8620
vn -0.4501 0.0480 -0.8917
vn -0.4353 -0.4943 -0.7525
vn 0.0289 -0.6552 -0.7549
vn -0.0227 0.7388 -0.6736
vn 0.0354 -0.6903 0.7227
vn -0.0199 0.6458 0.7633
vn -0.0404 0.1703 0.9846
vn -0.0064 0.1290 -0.9916
vn -0.0298 -0.6444 -0.7641
vn 0.0420 0.6691 -0.7420
vn -0.0363 -0.6795 0.7328
vn 0.0177 0.5943 0.8040
vn 0.0592 0.1916 0.9797
vn -0.0039 0.1331 -0.9911
vn 0.0108 0.5785 0.8156
vn -0.2233 0.6736 0.7046
vn -0.3016 -0.5880 0.7505
vn 0.0531 -0.6849 0.7267
vn -0.3224 0.1490 0.9348
vn 0.4730 -0.0363 -0.8803
vn 0.4112 -0.1451 0.8999
vn 0.5230 0.3745 -0.7656
vn 0.2266 0.0919 0.9696
vn 0.1876 0.1059 -0.9765
vn 0.1190 -0.5104 -0.8517
vn 0.0875 0.1418 0.9860
vn 0.2208 0.6731 -0.7058
vn -0.6420 0.0335 0.7660
vn -0.5270 -0.1744 -0.8318
vn -0.6198 -0.0618 0.7823
vn -0.4003 0.2254 -0.8882
vn -0.1205 -0.5611 -0.8189
vn -0.0375 0.0877 -0.9954
vn -0.0419 0.5164 -0.8553
vn 0.5531 0.8330 0.0094
vn -0.6850 -0.7285 -0.0091
vn 0.5730 -0.8180 0.0504
vn 0.9997 0.0147 -0.0215
vn -0.9967 0.0646 0.0500
vn -0.6975 0.7141 0.0592
vn -0.6503 -0.6608 0.3747
vn -0.6749 -0.6743 -0.2998
vn -0.6561 0.6647 -0.3574
vn -0.7330 0.6468 0.2107
vn 0.6350 -0.6834 -0.3602
vn 0.5679 -0.7919 0.2244
vn 0.5160 0.7600 0.3951
vn 0.5881 0.7847 -0.1959
vn -0.9488 0.1053 0.2978
vn -0.9447 0.0505 -0.3240
vn 0.8765 0.0957 -0.4719
vn 0.8394 0.0480 0.5414
vn -0.0370 0.2401 -0.9700
vn -0.0255 0.2906 -0.9565
vn 0.0464 0.1028 0.9936
vn -0.0276 0.2666 0.9634
vn -0.0137 -0.9509 -0.3091
vn 0.0305 0.9652 -0.2599
vn -0.0615 -0.1424 0.9879
vn 0.1868 -0.0571 -0.9807
vn -0.0066 -0.1698 -0.9854
vn 0.0156 -0.9540 -0.2993
vn 0.0036 -0.1679 -0.9858
vn 0.0557 -0.1391 0.9887
vn -0.9422 -0.0584 0.3300
vn -0.0812 0.9155 -0.3941
vn 0.0375 0.2277 0.9730
vn 0.0137 0.2940 -0.9557
vn -0.0103 -0.9755 0.2199
vn 0.0177 0.9618 0.2733
vn -0.2871 0.1503 0.9460
vn 0.1156 0.9664 -0.2295
vn -0.1228 0.9886 0.0871
vn 0.1127 -0.9641 0.2406
vn 0.0601 0.9668 0.2482
vn -0.3479 -0.1279 0.9288
vn 0.8825 0.3489 -0.3153
vn 0.8394 0.2855 0.4625
vn 0.8872 -0.2669 0.3763
vn -0.9336 0.2067 -0.2927
vn 0.0025 0.9794 -0.2020
vn 0.0570 -0.0414 0.9975
vn 0.0147 -0.9671 0.2539
vn 0.2219 0.2957 -0.9292
vn -0.9592 0.0835 0.2701
vn 0.9046 -0.2077 -0.3724
vn -0.9433 -0.1809 -0.2784
vn -0.0270 0.9740 0.2247
vn 0.0865 -0.9412 -0.3265
vn -0.1346 -0.9323 -0.3358
vn -0.0737 -0.1042 -0.9918
vn 0.0903 0.9957 -0.0180
vn -0.1442 -0.9895 -0.0024
vn -0.0087 -0.9999 0.0052
vn 0.0229 0.9994 -0.0271
vn -0.0086 1.0000 0.0027
vn 0.0113 -0.9999 0.0051
vn 0.1329 -0.9905 0.0351
vn 0.9566 -0.2912 0.0061
vn 0.9544 0.2983 -0.0078
vn -0.9925 -0.1209 0.0190
vn -0.9889 0.1405 0.0488
vn -0.1267 0.9909 0.0451
vn -0.1975 -0.9332 0.3002
vt 0.153695 0.067191
vt 0.152892 0.238846
vt 0.105851 0.237045
vt 0.107595 0.067820
vt 0.189621 0.408580
vt 0.179890 0.599173
vt 0.146653 0.602128
vt 0.150483 0.411138
vt 0.107955 0.000770
vt 0.153161 0.000336
vt 0.188828 0.066891
vt 0.180452 0.010856
vt 0.415114 0.284737
vt 0.538464 0.282748
vt 0.540351 0.417844
vt 0.415854 0.419101
vt 0.103392 0.411408
vt 0.100030 0.602081
vt 0.366259 0.277114
vt 0.329081 0.275238
vt 0.325198 0.084521
vt 0.359457 0.086656
vt 0.283813 0.275304
vt 0.279846 0.084803
vt 0.058407 0.237670
vt 0.056470 0.409936
vt 0.278343 0.000176
vt 0.322842 0.002452
vt 0.355195 0.017894
vt 0.189079 0.241990
vt 0.332334 0.423363
vt 0.285507 0.424274
vt 0.061927 0.066308
vt 0.369920 0.420618
vt 0.372481 0.593957
vt 0.334248 0.593707
vt 0.735026 0.078987
vt 0.847021 0.093853
vt 0.843699 0.282775
vt 0.722712 0.268198
vt 0.051734 0.904994
vt 0.048793 0.806659
vt 0.097394 0.806050
vt 0.097565 0.906008
vt 0.691852 0.262253
vt 0.713159 0.072758
vt 0.841952 0.417459
vt 0.722393 0.424199
vt 0.849338 0.005899
vt 0.746027 0.000176
vt 0.382445 0.423465
vt 0.382445 0.280706
vt 0.688652 0.427429
vt 0.680513 0.601137
vt 0.655563 0.598487
vt 0.660105 0.423763
vt 0.691500 0.261681
vt 0.658398 0.268532
vt 0.197819 0.278867
vt 0.236702 0.277033
vt 0.238431 0.424138
vt 0.200573 0.422125
vt 0.286517 0.593589
vt 0.239324 0.595390
vt 0.235071 0.086711
vt 0.019338 0.406274
vt 0.054010 0.600715
vt 0.021638 0.595953
vt 0.099456 0.676040
vt 0.053747 0.671863
vt 0.018243 0.660834
vt 0.020647 0.240677
vt 0.423521 0.097464
vt 0.534135 0.094161
vt 0.692743 0.428689
vt 0.026802 0.065422
vt 0.202312 0.595828
vt 0.204541 0.090506
vt 0.213049 0.661897
vt 0.242448 0.670541
vt 0.244054 0.703629
vt 0.207376 0.688899
vt 0.288632 0.669591
vt 0.289183 0.702027
vt 0.337740 0.898174
vt 0.336398 0.799019
vt 0.378376 0.797009
vt 0.377113 0.909580
vt 0.291703 0.800003
vt 0.244455 0.799482
vt 0.667385 0.657505
vt 0.649220 0.670895
vt 0.998625 0.422239
vt 0.981396 0.592126
vt 0.954388 0.590756
vt 0.965144 0.418825
vt 0.966527 0.284019
vt 0.999824 0.280595
vt 0.544206 0.670070
vt 0.543404 0.591584
vt 0.727794 0.598400
vt 0.704807 0.602057
vt 0.401852 0.094658
vt 0.644792 0.080429
vt 0.663137 0.074551
vt 0.367687 0.658414
vt 0.334577 0.669296
vt 0.531666 0.006089
vt 0.427409 0.011739
vt 0.634794 0.002957
vt 0.650760 0.014059
vt 0.430157 0.590985
vt 0.400976 0.593624
vt 0.440358 0.665017
vt 0.415951 0.655189
vt 0.957559 0.097208
vt 0.974977 0.095253
vt 0.947545 0.015336
vt 0.969719 0.025730
vt 0.407833 0.026159
vt 0.839412 0.591018
vt 0.940555 0.666066
vt 0.838694 0.671118
vt 0.145118 0.672924
vt 0.143236 0.706074
vt 0.098696 0.708776
vt 0.175084 0.663807
vt 0.185936 0.692620
vt 0.245850 0.896244
vt 0.290636 0.897692
vt 0.197468 0.806127
vt 0.146395 0.807508
vt 0.143012 0.906971
vt 0.187440 0.923283
vt 0.187608 0.948416
vt 0.148980 0.944112
vt 0.094164 0.949704
vt 0.000176 0.806080
vt 0.012059 0.688455
vt 0.051698 0.708239
vt 0.008977 0.914774
vt 0.039482 0.936907
vt 0.003891 0.939176
vt 0.332821 0.701626
vt 0.368672 0.931899
vt 0.337340 0.930221
vt 0.289040 0.927287
vt 0.203991 0.021230
vt 0.232857 0.003560
vt 0.368660 0.687397
vt 0.199260 0.799367
vt 0.210407 0.905442
vt 0.241761 0.923465
vt 0.211317 0.923426
vt 0.725642 0.010084
vt 0.739122 0.666146
vt 0.724167 0.656953
vt 0.036486 0.009906
vt 0.063198 0.000176
vt 0.959297 0.652919
s 1
f 63/1/63 78/2/78 24/3/24 43/4/43
f 14/5/14 37/6/37 94/7/94 64/8/64
f 63/1/63 43/4/43 11/9/11 41/10/41
f 44/11/44 63/1/63 41/10/41 10/12/10
f 80/13/80 105/14/105 106/15/106 98/16/98
f 24/3/24 78/2/78 64/8/64 18/17/18
f 64/8/64 94/7/94 34/18/34 18/17/18
f 22/19/22 77/20/77 65/21/65 25/22/25
f 65/21/65 77/20/77 23/23/23 36/24/36
f 73/25/73 24/3/24 18/17/18 71/26/71
f 65/21/65 36/24/36 4/27/4 33/28/33
f 25/22/25 65/21/65 33/28/33 3/29/3
f 78/2/78 20/30/20 14/5/14 64/8/64
f 23/23/23 77/20/77 66/31/66 17/32/17
f 73/25/73 101/33/101 43/4/43 24/3/24
f 16/34/16 26/35/26 81/36/81 66/31/66
f 99/37/99 108/38/108 107/39/107 67/40/67
f 89/41/89 109/42/109 48/43/48 62/44/62
f 19/45/19 35/46/35 99/37/99 67/40/67
f 107/39/107 104/47/104 72/48/72 67/40/67
f 47/49/47 108/38/108 99/37/99 55/50/55
f 80/13/80 98/16/98 16/51/16 22/52/22
f 20/53/20 44/54/44 76/55/76 68/56/68
f 14/57/14 20/53/20 68/56/68 91/58/91
f 77/20/77 22/19/22 16/34/16 66/31/66
f 15/59/15 74/60/74 69/61/69 21/62/21
f 20/30/20 78/2/78 63/1/63 44/11/44
f 17/32/17 29/63/29 86/64/86 69/61/69
f 74/60/74 92/65/92 36/24/36 23/23/23
f 19/66/19 71/26/71 70/67/70 35/68/35
f 70/67/70 34/18/34 1/69/1 30/70/30
f 35/68/35 70/67/70 30/70/30 2/71/2
f 74/60/74 23/23/23 17/32/17 69/61/69
f 13/72/13 73/25/73 71/26/71 19/66/19
f 85/73/85 102/74/102 105/14/105 80/13/80
f 13/75/13 19/45/19 67/40/67 72/48/72
f 71/26/71 18/17/18 34/18/34 70/67/70
f 13/72/13 42/76/42 101/33/101 73/25/73
f 69/61/69 86/64/86 27/77/27 21/62/21
f 15/59/15 28/78/28 92/65/92 74/60/74
f 7/79/7 40/80/40 75/81/75 51/82/51
f 40/80/40 8/83/8 59/84/59 75/81/75
f 90/85/90 112/86/112 50/87/50 53/88/53
f 49/89/49 111/90/111 75/81/75 59/84/59
f 76/55/76 44/54/44 10/91/10 53/92/53
f 21/93/21 27/94/27 114/95/114 79/96/79
f 79/96/79 93/97/93 15/98/15 21/93/21
f 50/99/50 113/100/113 76/55/76 53/92/53
f 72/48/72 100/101/100 42/102/42 13/75/13
f 22/52/22 25/103/25 85/73/85 80/13/80
f 113/100/113 106/15/106 68/56/68 76/55/76
f 106/15/106 105/14/105 91/58/91 68/56/68
f 14/57/14 91/58/91 82/104/82 37/105/37
f 81/36/81 26/35/26 9/106/9 38/107/38
f 29/63/29 81/36/81 38/107/38 8/83/8
f 45/108/45 102/74/102 85/73/85 57/109/57
f 37/105/37 82/104/82 58/110/58 6/111/6
f 79/96/79 104/47/104 107/39/107 93/97/93
f 98/16/98 83/112/83 26/113/26 16/51/16
f 98/16/98 106/15/106 113/100/113 83/112/83
f 26/113/26 83/112/83 54/114/54 9/115/9
f 82/104/82 91/58/91 105/14/105 102/74/102
f 93/97/93 84/116/84 28/117/28 15/98/15
f 107/39/107 108/38/108 84/116/84 93/97/93
f 28/117/28 84/116/84 56/118/56 5/119/5
f 85/73/85 25/103/25 3/120/3 57/109/57
f 103/121/103 114/95/114 51/122/51 46/123/46
f 86/64/86 29/63/29 8/83/8 40/80/40
f 27/77/27 86/64/86 40/80/40 7/79/7
f 1/69/1 32/124/32 87/125/87 61/126/61
f 32/124/32 6/127/6 58/128/58 87/125/87
f 97/129/97 111/90/111 49/89/49 60/130/60
f 45/131/45 110/132/110 87/125/87 58/128/58
f 110/132/110 48/43/48 61/126/61 87/125/87
f 48/43/48 110/132/110 88/133/88 62/44/62
f 88/133/88 57/134/57 3/135/3 33/136/33
f 62/44/62 88/133/88 33/136/33 4/137/4
f 109/42/109 47/138/47 55/139/55 96/140/96
f 47/138/47 109/42/109 89/41/89 56/141/56
f 89/41/89 62/44/62 4/137/4 31/142/31
f 56/141/56 89/41/89 31/142/31 5/143/5
f 112/86/112 49/89/49 59/84/59 95/144/95
f 49/89/49 112/86/112 90/85/90 60/130/60
f 90/85/90 53/88/53 10/145/10 41/146/41
f 60/130/60 90/85/90 41/146/41 11/147/11
f 92/65/92 28/78/28 5/148/5 31/149/31
f 36/24/36 92/65/92 31/149/31 4/27/4
f 94/7/94 37/6/37 6/127/6 32/124/32
f 34/18/34 94/7/94 32/124/32 1/69/1
f 8/83/8 38/107/38 95/144/95 59/84/59
f 38/107/38 9/106/9 54/150/54 95/144/95
f 83/112/83 113/100/113 50/99/50 54/114/54
f 50/87/50 112/86/112 95/144/95 54/150/54
f 2/71/2 30/70/30 96/140/96 55/139/55
f 30/70/30 1/69/1 61/126/61 96/140/96
f 88/133/88 110/132/110 45/131/45 57/134/57
f 48/43/48 109/42/109 96/140/96 61/126/61
f 111/90/111 46/151/46 51/82/51 75/81/75
f 46/151/46 111/90/111 97/129/97 52/152/52
f 97/129/97 60/130/60 11/147/11 39/153/39
f 52/152/52 97/129/97 39/153/39 12/154/12
f 99/37/99 35/46/35 2/155/2 55/50/55
f 108/38/108 47/49/47 56/118/56 84/116/84
f 79/96/79 114/95/114 103/121/103 104/47/104
f 42/102/42 100/101/100 52/156/52 12/157/12
f 101/33/101 42/76/42 12/158/12 39/159/39
f 43/4/43 101/33/101 39/159/39 11/9/11
f 103/121/103 46/123/46 52/156/52 100/101/100
f 104/47/104 103/121/103 100/101/100 72/48/72
f 114/95/114 27/94/27 7/160/7 51/122/51
f 66/31/66 81/36/81 29/63/29 17/32/17
f 82/104/82 102/74/102 45/108/45 58/110/58
