# Blender 4.3.2
# www.blender.org
mtllib Coin.mtl
o Plane
v -0.183274 0.292827 -0.028329
v -0.088564 0.358198 -0.028329
v -0.194476 0.315656 -0.028329
v -0.137752 0.336262 -0.028329
v -0.059316 0.395421 -0.028329
v -0.004145 0.420680 -0.028329
v -0.012787 0.437298 -0.028329
v -0.027410 0.463887 -0.028329
v -0.037381 0.480504 -0.028329
v -0.003659 0.465783 -0.028329
v 0.026431 0.441951 -0.028329
v 0.047037 0.422010 -0.028329
v 0.127468 0.303026 -0.028329
v 0.180644 0.227914 -0.028329
v 0.165356 0.198002 -0.028329
v 0.124809 0.169419 -0.028329
v 0.065649 0.144160 -0.028329
v 0.020449 0.141501 -0.028329
v 0.008484 0.234561 -0.028329
v 0.005161 0.261814 -0.028329
v -0.021428 0.249849 -0.028329
v -0.065964 0.246526 -0.028329
v -0.091887 0.246526 -0.028329
v -0.135094 0.249185 -0.028329
v -0.159023 0.255167 -0.028329
v -0.174976 0.273114 -0.028329
v 0.000000 0.605083 0.000000
v -0.115734 0.582063 0.000000
v -0.213848 0.516505 0.000000
v -0.279406 0.418391 0.000000
v -0.302426 0.302657 0.000000
v -0.279406 0.186924 -0.000000
v -0.213848 0.088809 -0.000000
v -0.115734 0.023252 -0.000000
v 0.000000 0.000231 -0.000000
v 0.115734 0.023252 -0.000000
v 0.213848 0.088809 -0.000000
v 0.279406 0.186924 -0.000000
v 0.302426 0.302657 0.000000
v 0.279406 0.418391 0.000000
v 0.213848 0.516505 0.000000
v 0.115734 0.582063 0.000000
v 0.000000 0.605083 -0.055283
v -0.115734 0.582063 -0.055283
v -0.213848 0.516505 -0.055283
v -0.279406 0.418391 -0.055283
v -0.302426 0.302657 -0.055283
v -0.279406 0.186924 -0.055283
v -0.213848 0.088809 -0.055283
v -0.115734 0.023252 -0.055283
v 0.000000 0.000231 -0.055283
v 0.115734 0.023252 -0.055283
v 0.213848 0.088809 -0.055283
v 0.279406 0.186924 -0.055283
v 0.302426 0.302657 -0.055283
v 0.279406 0.418391 -0.055283
v 0.213848 0.516505 -0.055283
v 0.115734 0.582063 -0.055283
v 0.000000 0.561795 0.000000
v -0.099168 0.542069 0.000000
v -0.183238 0.485895 0.000000
v -0.239412 0.401825 0.000000
v -0.259138 0.302657 0.000000
v -0.239412 0.203489 -0.000000
v -0.183238 0.119419 -0.000000
v -0.099168 0.063245 -0.000000
v 0.000000 0.043519 -0.000000
v 0.099168 0.063245 -0.000000
v 0.183238 0.119419 -0.000000
v 0.239412 0.203489 -0.000000
v 0.259138 0.302657 0.000000
v 0.239412 0.401825 0.000000
v 0.183238 0.485895 0.000000
v 0.099168 0.542069 0.000000
v 0.000000 0.561795 -0.028329
v -0.099168 0.542069 -0.028329
v -0.183238 0.485895 -0.028329
v -0.239412 0.401825 -0.028329
v -0.259138 0.302657 -0.028329
v -0.239412 0.203489 -0.028329
v -0.183238 0.119419 -0.028329
v -0.099168 0.063245 -0.028329
v 0.000000 0.043519 -0.028329
v 0.099168 0.063245 -0.028329
v 0.183238 0.119419 -0.028329
v 0.239412 0.203489 -0.028329
v 0.259138 0.302657 -0.028329
v 0.239412 0.401825 -0.028329
v 0.183238 0.485895 -0.028329
v 0.099168 0.542069 -0.028329
v 0.000000 0.548785 -0.028329
v -0.094189 0.530049 -0.028329
v -0.174038 0.476696 -0.028329
v -0.227392 0.396846 -0.028329
v -0.246128 0.302657 -0.028329
v -0.227392 0.208468 -0.028329
v -0.174038 0.128619 -0.028329
v -0.094189 0.075265 -0.028329
v 0.000000 0.056530 -0.028329
v 0.094189 0.075265 -0.028329
v 0.174039 0.128619 -0.028329
v 0.227392 0.208468 -0.028329
v 0.246128 0.302657 -0.028329
v 0.227392 0.396846 -0.028329
v 0.174039 0.476696 -0.028329
v 0.094189 0.530049 -0.028329
v -0.183274 0.292827 -0.018202
v -0.174740 0.296714 -0.008828
v -0.088564 0.358198 -0.018202
v -0.082627 0.350581 -0.008828
v -0.181461 0.310411 -0.008828
v -0.194476 0.315656 -0.018202
v -0.137752 0.336262 -0.018202
v -0.134239 0.327565 -0.008828
v -0.053349 0.387844 -0.008828
v -0.059316 0.395421 -0.018202
v 0.008718 0.416260 -0.008828
v -0.004145 0.420680 -0.018202
v -0.004533 0.441743 -0.008828
v -0.012787 0.437298 -0.018202
v -0.014255 0.460180 -0.008828
v -0.027410 0.463887 -0.018202
v -0.037381 0.480504 -0.018202
v -0.008525 0.457679 -0.008828
v -0.003659 0.465783 -0.018202
v 0.020247 0.434892 -0.008828
v 0.026431 0.441951 -0.018202
v 0.039818 0.415952 -0.008828
v 0.047037 0.422010 -0.018202
v 0.119746 0.297711 -0.008828
v 0.127468 0.303026 -0.018202
v 0.169716 0.227128 -0.008828
v 0.180644 0.227914 -0.018202
v 0.158063 0.204330 -0.008828
v 0.165356 0.198002 -0.018202
v 0.120217 0.177651 -0.008828
v 0.124809 0.169419 -0.018202
v 0.063470 0.153422 -0.008828
v 0.065649 0.144160 -0.018202
v 0.028631 0.151373 -0.008828
v 0.020449 0.141501 -0.018202
v 0.017783 0.235743 -0.008828
v 0.008484 0.234561 -0.018202
v 0.012924 0.275587 -0.008828
v 0.005161 0.261814 -0.018202
v -0.023770 0.259075 -0.008828
v -0.021428 0.249849 -0.018202
v -0.066313 0.255900 -0.008828
v -0.065964 0.246526 -0.018202
v -0.091599 0.255900 -0.008828
v -0.091887 0.246526 -0.018202
v -0.133657 0.258488 -0.008828
v -0.135094 0.249185 -0.018202
v -0.153941 0.263559 -0.008828
v -0.159023 0.255167 -0.018202
v -0.166939 0.278182 -0.008828
v -0.174976 0.273114 -0.018202
v -0.204358 0.381681 -0.055283
v -0.160386 0.236223 -0.055283
v -0.088625 0.102276 -0.055283
v -0.062635 0.453870 -0.055283
v -0.000000 0.302657 -0.055283
v 0.062635 0.151444 -0.055283
v 0.088625 0.503039 -0.055283
v 0.160386 0.369091 -0.055283
v 0.204358 0.223633 -0.055283
vn 0.7071 0.7071 -0.0000
vn 0.3827 0.9239 -0.0000
vn -0.3827 -0.9239 -0.0000
vn -0.0000 -1.0000 -0.0000
vn -0.0000 1.0000 -0.0000
vn -0.3827 0.9239 -0.0000
vn 0.3827 -0.9239 -0.0000
vn -0.7071 0.7071 -0.0000
vn 0.7071 -0.7071 -0.0000
vn -0.9239 0.3827 -0.0000
vn 0.9239 -0.3827 -0.0000
vn -1.0000 -0.0000 -0.0000
vn 1.0000 -0.0000 -0.0000
vn -0.9239 -0.3827 -0.0000
vn 0.9239 0.3827 -0.0000
vn -0.7071 -0.7071 -0.0000
vn -0.0000 -0.0000 1.0000
vn -0.3414 0.9399 -0.0000
vn -0.3746 0.9272 -0.0000
vn -0.9922 -0.1243 -0.0000
vn -0.9926 -0.1211 -0.0000
vn 0.7661 0.6428 -0.0000
vn 0.8224 0.5690 -0.0000
vn -0.9101 -0.4144 -0.0000
vn -0.8978 -0.4405 -0.0000
vn -0.4163 0.9092 -0.0000
vn -0.6187 0.7856 -0.0000
vn 0.4104 -0.9119 -0.0000
vn 0.2461 -0.9692 -0.0000
vn 0.8162 0.5778 -0.0000
vn -0.8818 -0.4717 -0.0000
vn -0.8872 -0.4614 -0.0000
vn 0.0372 -0.9993 -0.0000
vn 0.8904 -0.4551 -0.0000
vn 0.7553 -0.6553 -0.0000
vn -0.8670 -0.4983 -0.0000
vn -0.0307 -0.9995 -0.0000
vn 0.4871 -0.8733 -0.0000
vn -0.8575 -0.5145 -0.0000
vn -0.1526 -0.9883 -0.0000
vn 0.2291 -0.9734 -0.0000
vn 0.4001 0.9165 -0.0000
vn 0.5148 0.8573 -0.0000
vn -0.2425 -0.9701 -0.0000
vn -0.6148 0.7887 -0.0000
vn 0.0587 -0.9983 -0.0000
vn 0.6590 0.7522 -0.0000
vn -0.7474 -0.6644 -0.0000
vn -0.8459 -0.5333 -0.0000
vn -0.9918 -0.1275 -0.0000
vn -0.6348 -0.3115 0.7071
vn -0.6434 -0.2930 0.7073
vn -0.4312 0.5475 0.7171
vn -0.4282 0.5493 0.7175
vn -0.2648 0.6554 0.7073
vn -0.2414 0.6646 0.7071
vn -0.2944 0.6429 0.7071
vn -0.6211 -0.3293 0.7112
vn -0.6274 -0.3262 0.7071
vn -0.6211 -0.3294 0.7112
vn -0.6090 -0.3544 0.7096
vn -0.6133 -0.3383 0.7137
vn -0.6063 -0.3638 0.7071
vn 0.3625 0.6037 0.7101
vn 0.2829 0.6480 0.7071
vn 0.4657 0.5315 0.7075
vn 0.5402 0.4533 0.7090
vn 0.5815 0.4023 0.7071
vn 0.5771 0.4086 0.7071
vn 0.5261 -0.4565 0.7175
vn 0.6296 -0.3218 0.7071
vn 0.3435 -0.6158 0.7091
vn 0.1608 -0.6831 0.7124
vn 0.0415 -0.7059 0.7071
vn -0.7016 -0.0879 0.7071
vn -0.7013 -0.0902 0.7071
vn -0.7019 -0.0856 0.7071
vn 0.1727 -0.6801 0.7125
vn 0.2902 -0.6448 0.7071
vn 0.0263 -0.7064 0.7074
vn -0.0217 -0.7066 0.7073
vn -0.1077 -0.6973 0.7086
vn -0.3579 -0.5909 0.7230
vn -0.5941 -0.3746 0.7119
vn -0.0000 -0.0000 -1.0000
vt 0.109554 0.902930
vt 0.130303 0.922998
vt 0.083971 0.964374
vt 0.066356 0.942472
vt 0.247587 0.419513
vt 0.285863 0.415243
vt 0.290408 0.500626
vt 0.251451 0.500522
vt 0.017639 0.023512
vt 0.034442 0.000124
vt 0.084364 0.035990
vt 0.066583 0.057887
vt 0.034052 0.999876
vt 0.017419 0.976489
vt 0.285420 0.586017
vt 0.247092 0.581652
vt 0.130667 0.077724
vt 0.109770 0.097846
vt 0.270582 0.668861
vt 0.234024 0.660228
vt 0.173673 0.126745
vt 0.148995 0.145136
vt 0.246161 0.746571
vt 0.212594 0.733875
vt 0.213335 0.184638
vt 0.184093 0.200975
vt 0.212686 0.816397
vt 0.183467 0.800018
vt 0.246521 0.254605
vt 0.212866 0.267253
vt 0.173136 0.874158
vt 0.148525 0.855839
vt 0.270994 0.332392
vt 0.234418 0.341052
vt 0.052429 0.925245
vt 0.092918 0.887272
vt 0.220492 0.500421
vt 0.217092 0.422728
vt 0.052521 0.075102
vt 0.008658 0.044294
vt 0.008570 0.955736
vt 0.216610 0.578046
vt 0.092934 0.113357
vt 0.204964 0.653405
vt 0.129107 0.159041
vt 0.185923 0.724036
vt 0.160698 0.213200
vt 0.160146 0.787500
vt 0.186137 0.276760
vt 0.128822 0.841585
vt 0.205307 0.347324
vt 0.144421 0.220887
vt 0.115314 0.168202
vt 0.143901 0.779808
vt 0.167400 0.718033
vt 0.167621 0.282736
vt 0.115036 0.832497
vt 0.185146 0.351469
vt 0.081367 0.876865
vt 0.195933 0.424765
vt 0.042890 0.913605
vt 0.199048 0.500356
vt 0.042894 0.086739
vt 0.000124 0.056277
vt 0.000124 0.943753
vt 0.195467 0.575961
vt 0.081346 0.123791
vt 0.184797 0.649293
vt 0.317003 0.438514
vt 0.324154 0.443395
vt 0.299688 0.502730
vt 0.290655 0.501035
vt 0.550008 0.669439
vt 0.545484 0.662727
vt 0.587001 0.619705
vt 0.593840 0.624424
vt 0.364984 0.392028
vt 0.369568 0.399288
vt 0.491557 0.693314
vt 0.489984 0.685224
vt 0.427606 0.368672
vt 0.429124 0.377053
vt 0.426604 0.693314
vt 0.428114 0.685026
vt 0.492881 0.368762
vt 0.491254 0.376978
vt 0.365058 0.670243
vt 0.369470 0.663127
vt 0.552882 0.393449
vt 0.548252 0.400371
vt 0.318102 0.626133
vt 0.324878 0.621390
vt 0.598389 0.439318
vt 0.591445 0.443908
vt 0.292805 0.567014
vt 0.301004 0.565207
vt 0.622839 0.499299
vt 0.614603 0.500845
vt 0.613087 0.562832
vt 0.621896 0.564849
vt 0.435717 0.409928
vt 0.477620 0.451438
vt 0.412999 0.415260
vt 0.388504 0.436518
vt 0.364693 0.470709
vt 0.357943 0.500730
vt 0.412856 0.522516
vt 0.426607 0.526949
vt 0.416574 0.539897
vt 0.409499 0.566305
vt 0.406813 0.581898
vt 0.404558 0.608682
vt 0.406829 0.624454
vt 0.416608 0.636849
vt 0.428231 0.644536
vt 0.443353 0.653085
vt 0.465742 0.623106
vt 0.484531 0.597887
vt 0.509006 0.584527
vt 0.528656 0.558266
vt 0.536067 0.563322
vt 0.550858 0.572312
vt 0.562683 0.576724
vt 0.560818 0.552876
vt 0.550663 0.531131
vt 0.541091 0.515900
vt 0.442576 0.647743
vt 0.461699 0.619645
vt 0.415456 0.518371
vt 0.429801 0.526117
vt 0.536003 0.519621
vt 0.473521 0.455752
vt 0.430919 0.639809
vt 0.505273 0.580637
vt 0.527808 0.554160
vt 0.421847 0.541687
vt 0.434508 0.415681
vt 0.538006 0.559035
vt 0.415305 0.567424
vt 0.415528 0.420708
vt 0.552567 0.567963
vt 0.412759 0.582598
vt 0.392933 0.440576
vt 0.560479 0.573438
vt 0.410525 0.608205
vt 0.370186 0.472760
vt 0.556056 0.554298
vt 0.412480 0.622069
vt 0.480812 0.594005
vt 0.362969 0.498609
vt 0.545416 0.534174
vt 0.420768 0.632741
vt 0.434813 0.633764
vt 0.441100 0.638606
vt 0.475474 0.588216
vt 0.500474 0.575333
vt 0.456010 0.615219
vt 0.525968 0.543490
vt 0.541382 0.553042
vt 0.550950 0.559397
vt 0.549727 0.556610
vt 0.538657 0.538154
vt 0.529482 0.524536
vt 0.468001 0.461412
vt 0.432656 0.423833
vt 0.418898 0.427607
vt 0.398673 0.445812
vt 0.377281 0.475654
vt 0.371505 0.494689
vt 0.418580 0.512261
vt 0.441323 0.522624
vt 0.428752 0.544205
vt 0.422832 0.568884
vt 0.420414 0.583527
vt 0.418061 0.607771
vt 0.419341 0.619198
vt 0.425758 0.627598
vt 0.579119 0.340390
vt 0.511436 0.368425
vt 0.553041 0.295554
vt 0.630921 0.288587
vt 0.438176 0.368425
vt 0.454982 0.283936
vt 0.370493 0.340390
vt 0.359941 0.257145
vt 0.318690 0.288587
vt 0.290655 0.220904
vt 0.580513 0.205301
vt 0.658957 0.220904
vt 0.474806 0.184274
vt 0.369099 0.163248
vt 0.290655 0.147644
vt 0.589670 0.111404
vt 0.658957 0.147644
vt 0.494630 0.084613
vt 0.396571 0.072994
vt 0.318690 0.079961
vt 0.579119 0.028159
vt 0.630921 0.079961
vt 0.511436 0.000124
vt 0.438176 0.000124
vt 0.370493 0.028159
s 1
usemtl 
f 41/1/1 57/2/1 58/3/2 42/4/2
f 34/5/3 50/6/3 51/7/4 35/8/4
f 27/9/5 43/10/5 44/11/6 28/12/6
f 42/4/2 58/3/2 43/13/5 27/14/5
f 35/8/4 51/7/4 52/15/7 36/16/7
f 28/12/6 44/11/6 45/17/8 29/18/8
f 36/16/7 52/15/7 53/19/9 37/20/9
f 29/18/8 45/17/8 46/21/10 30/22/10
f 37/20/9 53/19/9 54/23/11 38/24/11
f 30/22/10 46/21/10 47/25/12 31/26/12
f 38/24/11 54/23/11 55/27/13 39/28/13
f 31/26/12 47/25/12 48/29/14 32/30/14
f 39/28/13 55/27/13 56/31/15 40/32/15
f 32/30/14 48/29/14 49/33/16 33/34/16
f 40/32/15 56/31/15 57/2/1 41/1/1
f 33/34/16 49/33/16 50/6/3 34/5/3
f 42/4/17 74/35/17 73/36/17 41/1/17
f 35/8/17 67/37/17 66/38/17 34/5/17
f 28/12/17 60/39/17 59/40/17 27/9/17
f 27/14/17 59/41/17 74/35/17 42/4/17
f 36/16/17 68/42/17 67/37/17 35/8/17
f 29/18/17 61/43/17 60/39/17 28/12/17
f 37/20/17 69/44/17 68/42/17 36/16/17
f 30/22/17 62/45/17 61/43/17 29/18/17
f 38/24/17 70/46/17 69/44/17 37/20/17
f 31/26/17 63/47/17 62/45/17 30/22/17
f 39/28/17 71/48/17 70/46/17 38/24/17
f 32/30/17 64/49/17 63/47/17 31/26/17
f 40/32/17 72/50/17 71/48/17 39/28/17
f 33/34/17 65/51/17 64/49/17 32/30/17
f 41/1/17 73/36/17 72/50/17 40/32/17
f 34/5/17 66/38/17 65/51/17 33/34/17
f 63/47/13 79/52/13 78/53/11 62/45/11
f 71/48/12 87/54/12 86/55/10 70/46/10
f 64/49/15 80/56/15 79/52/13 63/47/13
f 72/50/14 88/57/14 87/54/12 71/48/12
f 65/51/1 81/58/1 80/56/15 64/49/15
f 73/36/16 89/59/16 88/57/14 72/50/14
f 66/38/2 82/60/2 81/58/1 65/51/1
f 74/35/3 90/61/3 89/59/16 73/36/16
f 67/37/5 83/62/5 82/60/2 66/38/2
f 60/39/7 76/63/7 75/64/4 59/40/4
f 59/41/4 75/65/4 90/61/3 74/35/3
f 68/42/6 84/66/6 83/62/5 67/37/5
f 61/43/9 77/67/9 76/63/7 60/39/7
f 69/44/8 85/68/8 84/66/6 68/42/6
f 62/45/11 78/53/11 77/67/9 61/43/9
f 70/46/10 86/55/10 85/68/8 69/44/8
f 84/69/17 100/70/17 99/71/17 83/72/17
f 77/73/17 93/74/17 92/75/17 76/76/17
f 85/77/17 101/78/17 100/70/17 84/69/17
f 78/79/17 94/80/17 93/74/17 77/73/17
f 86/81/17 102/82/17 101/78/17 85/77/17
f 79/83/17 95/84/17 94/80/17 78/79/17
f 87/85/17 103/86/17 102/82/17 86/81/17
f 80/87/17 96/88/17 95/84/17 79/83/17
f 88/89/17 104/90/17 103/86/17 87/85/17
f 81/91/17 97/92/17 96/88/17 80/87/17
f 89/93/17 105/94/17 104/90/17 88/89/17
f 82/95/17 98/96/17 97/92/17 81/91/17
f 90/97/17 106/98/17 105/94/17 89/93/17
f 83/72/17 99/71/17 98/96/17 82/95/17
f 76/76/17 92/75/17 91/99/17 75/100/17
f 75/100/17 91/99/17 106/98/17 90/97/17
f 14/101/17 103/86/17 104/90/17 13/102/17
f 15/103/17 102/82/17 103/86/17 14/101/17
f 16/104/17 101/78/17 102/82/17 15/103/17
f 17/105/17 100/70/17 101/78/17 16/104/17
f 18/106/17 99/71/17 100/70/17 17/105/17
f 19/107/17 98/96/17 99/71/17 18/106/17
f 20/108/17 97/92/17 98/96/17 19/107/17
f 21/109/17 96/88/17 97/92/17 20/108/17
f 21/109/17 22/110/17 96/88/17
f 22/110/17 23/111/17 96/88/17
f 23/111/17 24/112/17 96/88/17
f 24/112/17 25/113/17 96/88/17
f 26/114/17 95/84/17 96/88/17 25/113/17
f 1/115/17 3/116/17 95/84/17 26/114/17
f 4/117/17 94/80/17 95/84/17 3/116/17
f 2/118/17 93/74/17 94/80/17 4/117/17
f 5/119/17 92/75/17 93/74/17 2/118/17
f 6/120/17 7/121/17 5/119/17
f 7/121/17 8/122/17 5/119/17
f 8/122/17 9/123/17 5/119/17
f 5/119/17 9/123/17 92/75/17
f 10/124/17 91/99/17 92/75/17 9/123/17
f 11/125/17 106/98/17 91/99/17 10/124/17
f 12/126/17 105/94/17 106/98/17 11/125/17
f 13/102/17 104/90/17 105/94/17 12/126/17
f 3/116/18 112/127/18 113/128/19 4/117/19
f 19/107/20 143/129/20 145/130/21 20/108/21
f 12/126/22 129/131/22 131/132/23 13/102/23
f 1/115/24 107/133/24 112/127/25 3/116/25
f 6/120/26 5/119/27 116/134/27 118/135/26
f 20/108/28 145/130/28 147/136/29 21/109/29
f 13/102/23 131/132/23 133/137/30 14/101/30
f 7/121/31 6/120/32 118/135/32 120/138/31
f 21/109/29 147/136/29 149/139/33 22/110/33
f 14/101/34 133/137/34 135/140/35 15/103/35
f 8/122/36 7/121/31 120/138/31 122/141/36
f 22/110/33 149/139/33 151/142/37 23/111/37
f 15/103/35 135/140/35 137/143/38 16/104/38
f 9/123/39 8/122/36 122/141/36 123/144/39
f 23/111/37 151/142/37 153/145/40 24/112/40
f 16/104/38 137/143/38 139/146/41 17/105/41
f 9/123/42 123/144/42 125/147/43 10/124/43
f 24/112/40 153/145/40 155/148/44 25/113/44
f 2/118/45 109/149/45 116/134/27 5/119/27
f 17/105/41 139/146/41 141/150/46 18/106/46
f 10/124/43 125/147/43 127/151/47 11/125/47
f 25/113/48 155/148/48 157/152/49 26/114/49
f 4/117/19 113/128/19 109/149/45 2/118/45
f 11/125/47 127/151/47 129/131/22 12/126/22
f 26/114/49 157/152/49 107/133/24 1/115/24
f 18/106/50 141/150/50 143/129/20 19/107/20
f 112/127/51 107/133/52 108/153/52 111/154/51
f 116/134/53 109/149/54 110/155/54 115/156/53
f 109/149/54 113/128/55 114/157/55 110/155/54
f 113/128/55 112/127/56 111/154/56 114/157/55
f 118/135/57 116/134/53 115/156/53 117/158/57
f 120/138/58 118/135/59 117/158/59 119/159/60
f 122/141/61 120/138/58 119/159/60 121/160/62
f 123/144/63 122/141/61 121/160/62
f 125/147/64 123/144/65 121/160/65 124/161/64
f 127/151/66 125/147/64 124/161/64 126/162/66
f 129/131/67 127/151/66 126/162/66 128/163/67
f 131/132/68 129/131/67 128/163/67 130/164/68
f 133/137/69 131/132/68 130/164/68 132/165/69
f 135/140/70 133/137/71 132/165/71 134/166/70
f 137/143/72 135/140/70 134/166/70 136/167/72
f 139/146/73 137/143/72 136/167/72 138/168/73
f 141/150/74 139/146/73 138/168/73 140/169/74
f 143/129/75 141/150/76 140/169/76 142/170/75
f 145/130/77 143/129/75 142/170/75 144/171/77
f 147/136/78 145/130/79 144/171/79 146/172/78
f 149/139/80 147/136/78 146/172/78 148/173/80
f 151/142/81 149/139/80 148/173/80 150/174/81
f 153/145/82 151/142/81 150/174/81 152/175/82
f 155/148/83 153/145/82 152/175/82 154/176/83
f 157/152/84 155/148/83 154/176/83 156/177/84
f 107/133/52 157/152/84 156/177/84 108/153/52
f 111/154/17 108/153/17 156/177/17 154/176/17 152/175/17 150/174/17 148/173/17 146/172/17 144/171/17 142/170/17 140/169/17 138/168/17 136/167/17 134/166/17 132/165/17 130/164/17 128/163/17 126/162/17 124/161/17 121/160/17 119/159/17 117/158/17 115/156/17 110/155/17 114/157/17
f 46/178/85 45/179/85 158/180/85 47/181/85
f 45/179/85 44/182/85 161/183/85 158/180/85
f 44/182/85 43/184/85 164/185/85 161/183/85
f 43/184/85 58/186/85 57/187/85 164/185/85
f 47/181/85 158/180/85 159/188/85 48/189/85
f 158/180/85 161/183/85 162/190/85 159/188/85
f 161/183/85 164/185/85 165/191/85 162/190/85
f 164/185/85 57/187/85 56/192/85 165/191/85
f 48/189/85 159/188/85 160/193/85 49/194/85
f 159/188/85 162/190/85 163/195/85 160/193/85
f 162/190/85 165/191/85 166/196/85 163/195/85
f 165/191/85 56/192/85 55/197/85 166/196/85
f 49/194/85 160/193/85 51/198/85 50/199/85
f 160/193/85 163/195/85 52/200/85 51/198/85
f 163/195/85 166/196/85 53/201/85 52/200/85
f 166/196/85 55/197/85 54/202/85 53/201/85
