# Blender 4.3.2
# www.blender.org
o Cube.011
v 0.039192 0.514668 0.050437
v 0.039191 0.617731 0.050437
v 0.039192 0.514668 -0.050437
v 0.039191 0.617731 -0.050437
v 2.063033 0.514668 0.050437
v 2.063033 0.617731 0.050437
v 2.063033 0.514668 -0.050437
v 2.063033 0.617731 -0.050437
v 0.039854 0.495615 0.000000
v 0.039854 0.636783 0.000000
v 2.062371 0.495615 0.000000
v 2.062371 0.636783 0.000000
v 1.557073 0.523249 -0.045730
v 1.051113 0.527159 -0.045730
v 0.545152 0.523249 -0.045730
v 0.545152 0.609149 -0.045730
v 1.051113 0.605239 -0.045730
v 1.557073 0.609149 -0.045730
v 0.545152 0.523249 0.045730
v 1.051113 0.527159 0.045730
v 1.557073 0.523249 0.045730
v 1.557073 0.609149 0.045730
v 1.051112 0.605239 0.045730
v 0.545152 0.609149 0.045730
v 0.545483 0.625024 0.000000
v 1.051113 0.619673 0.000000
v 1.556741 0.625024 0.000000
v 1.556741 0.507375 0.000000
v 1.051113 0.512725 0.000000
v 0.545483 0.507375 0.000000
v 0.039192 0.175863 0.050437
v 0.039191 0.278927 0.050437
v 0.039192 0.175863 -0.050437
v 0.039191 0.278927 -0.050437
v 2.063033 0.175863 0.050437
v 2.063033 0.278927 0.050437
v 2.063033 0.175863 -0.050437
v 2.063033 0.278927 -0.050437
v 0.039854 0.156811 0.000000
v 0.039854 0.297979 0.000000
v 2.062371 0.156811 0.000000
v 2.062371 0.297979 0.000000
v 1.557073 0.184445 -0.045730
v 1.051113 0.188355 -0.045730
v 0.545152 0.184445 -0.045730
v 0.545152 0.270345 -0.045730
v 1.051113 0.266435 -0.045730
v 1.557073 0.270345 -0.045730
v 0.545152 0.184445 0.045730
v 1.051113 0.188355 0.045730
v 1.557073 0.184445 0.045730
v 1.557073 0.270345 0.045730
v 1.051112 0.266435 0.045730
v 0.545152 0.270345 0.045730
v 0.545483 0.286220 0.000000
v 1.051113 0.280869 0.000000
v 1.556741 0.286220 0.000000
v 1.556741 0.168570 0.000000
v 1.051113 0.173921 0.000000
v 0.545483 0.168570 0.000000
vn -0.0118 -0.5792 -0.8151
vn -0.0118 0.5792 -0.8151
vn -0.0182 0.5740 -0.8187
vn -0.0182 -0.5740 -0.8187
vn -0.0154 -0.9999 -0.0000
vn -0.0218 -0.9998 -0.0000
vn -0.0182 -0.5740 0.8187
vn -0.0118 -0.5792 0.8151
vn 0.0154 0.9999 -0.0000
vn 0.0218 0.9998 -0.0000
vn 0.0182 0.5740 0.8187
vn 0.0118 0.5792 0.8151
vn 0.0118 0.5792 -0.8151
vn 0.0182 0.5740 -0.8187
vn 1.0000 -0.0000 -0.0000
vn -1.0000 -0.0000 -0.0000
vn 0.0118 -0.5792 0.8151
vn 0.0182 -0.5740 0.8187
vn -0.0182 0.5740 0.8187
vn -0.0118 0.5792 0.8151
vn -0.0000 0.5835 0.8121
vn -0.0000 -0.5835 0.8121
vn 0.0182 -0.5740 -0.8187
vn 0.0118 -0.5792 -0.8151
vn 0.0154 -0.9999 -0.0000
vn 0.0218 -0.9998 -0.0000
vn -0.0000 -0.5835 -0.8121
vn -0.0000 -1.0000 -0.0000
vn -0.0154 0.9999 -0.0000
vn -0.0218 0.9998 -0.0000
vn -0.0000 0.5835 -0.8121
vn -0.0000 1.0000 -0.0000
vt 0.126801 0.444842
vt 0.126801 0.470632
vt 0.010152 0.470633
vt 0.010152 0.444842
vt 0.126878 0.484177
vt 0.010305 0.484177
vt 0.010152 0.470685
vt 0.126801 0.470685
vt 0.360024 0.431403
vt 0.476597 0.431403
vt 0.476750 0.444895
vt 0.360100 0.444895
vt 0.360100 0.470632
vt 0.476750 0.470632
vt 0.476597 0.484124
vt 0.360024 0.484124
vt 0.010305 0.431350
vt 0.126878 0.431350
vt 0.347373 0.436257
vt 0.393541 0.436257
vt 0.402075 0.458853
vt 0.393541 0.481449
vt 0.347373 0.481449
vt 0.338839 0.458853
vt 0.402184 0.458853
vt 0.410718 0.436257
vt 0.456886 0.436257
vt 0.465421 0.458853
vt 0.456886 0.481449
vt 0.410718 0.481449
vt 0.360100 0.470685
vt 0.476750 0.470685
vt 0.010152 0.444895
vt 0.126801 0.444895
vt 0.243451 0.444895
vt 0.243451 0.470685
vt 0.476750 0.444842
vt 0.360100 0.444842
vt 0.360024 0.431350
vt 0.476597 0.431350
vt 0.243451 0.444842
vt 0.243451 0.431350
vt 0.126878 0.484124
vt 0.010305 0.484124
vt 0.243451 0.470632
vt 0.243451 0.484124
vt 0.010305 0.431403
vt 0.126878 0.431403
vt 0.243451 0.431403
vt 0.476597 0.484177
vt 0.360024 0.484177
vt 0.243451 0.484177
s 1
f 13/1/1 18/2/2 8/3/3 7/4/4
f 28/5/5 11/6/6 5/7/7 21/8/8
f 25/9/9 10/10/10 2/11/11 24/12/12
f 16/13/13 4/14/14 10/15/10 25/16/9
f 13/1/1 7/4/4 11/17/6 28/18/5
f 7/19/15 8/20/15 12/21/15 6/22/15 5/23/15 11/24/15
f 9/25/16 1/26/16 2/27/16 10/28/16 4/29/16 3/30/16
f 19/31/17 24/12/12 2/11/11 1/32/18
f 5/7/7 6/33/19 22/34/20 21/8/8
f 21/8/8 22/34/20 23/35/21 20/36/22
f 20/36/22 23/35/21 24/12/12 19/31/17
f 3/37/23 15/38/24 30/39/25 9/40/26
f 15/38/24 14/41/27 29/42/28 30/39/25
f 14/41/27 13/1/1 28/18/5 29/42/28
f 8/3/3 18/2/2 27/43/29 12/44/30
f 18/2/2 17/45/31 26/46/32 27/43/29
f 17/45/31 16/13/13 25/16/9 26/46/32
f 12/47/30 27/48/29 22/34/20 6/33/19
f 27/48/29 26/49/32 23/35/21 22/34/20
f 26/49/32 25/9/9 24/12/12 23/35/21
f 9/50/26 30/51/25 19/31/17 1/32/18
f 30/51/25 29/52/28 20/36/22 19/31/17
f 29/52/28 28/5/5 21/8/8 20/36/22
f 3/37/23 4/14/14 16/13/13 15/38/24
f 15/38/24 16/13/13 17/45/31 14/41/27
f 14/41/27 17/45/31 18/2/2 13/1/1
f 43/1/1 48/2/2 38/3/3 37/4/4
f 58/5/5 41/6/6 35/7/7 51/8/8
f 55/9/9 40/10/10 32/11/11 54/12/12
f 46/13/13 34/14/14 40/15/10 55/16/9
f 43/1/1 37/4/4 41/17/6 58/18/5
f 37/19/15 38/20/15 42/21/15 36/22/15 35/23/15 41/24/15
f 39/25/16 31/26/16 32/27/16 40/28/16 34/29/16 33/30/16
f 49/31/17 54/12/12 32/11/11 31/32/18
f 35/7/7 36/33/19 52/34/20 51/8/8
f 51/8/8 52/34/20 53/35/21 50/36/22
f 50/36/22 53/35/21 54/12/12 49/31/17
f 33/37/23 45/38/24 60/39/25 39/40/26
f 45/38/24 44/41/27 59/42/28 60/39/25
f 44/41/27 43/1/1 58/18/5 59/42/28
f 38/3/3 48/2/2 57/43/29 42/44/30
f 48/2/2 47/45/31 56/46/32 57/43/29
f 47/45/31 46/13/13 55/16/9 56/46/32
f 42/47/30 57/48/29 52/34/20 36/33/19
f 57/48/29 56/49/32 53/35/21 52/34/20
f 56/49/32 55/9/9 54/12/12 53/35/21
f 39/50/26 60/51/25 49/31/17 31/32/18
f 60/51/25 59/52/28 50/36/22 49/31/17
f 59/52/28 58/5/5 51/8/8 50/36/22
f 33/37/23 34/14/14 46/13/13 45/38/24
f 45/38/24 46/13/13 47/45/31 44/41/27
f 44/41/27 47/45/31 48/2/2 43/1/1
o Cube.012
v -0.058401 0.000000 0.087153
v -0.087153 0.000000 0.058401
v -0.086615 0.773230 0.058040
v -0.058040 0.773230 0.086615
v -0.087153 0.000000 -0.058401
v -0.058401 0.000000 -0.087153
v -0.058040 0.773230 -0.086615
v -0.086615 0.773230 -0.058040
v 0.087153 0.000000 0.058401
v 0.058401 0.000000 0.087153
v 0.058040 0.773230 0.086615
v 0.086615 0.773230 0.058040
v 0.058401 0.000000 -0.087153
v 0.087153 0.000000 -0.058401
v 0.086615 0.773230 -0.058040
v 0.058040 0.773230 -0.086615
v -0.051348 0.386615 0.076627
v -0.076627 0.386615 0.051348
v -0.051348 0.386615 -0.076627
v -0.076627 0.386615 -0.051348
v 0.076627 0.386615 -0.051348
v 0.051348 0.386615 -0.076627
v 0.051348 0.386615 0.076627
v 0.076627 0.386615 0.051348
v 2.160626 0.000000 0.087153
v 2.189378 0.000000 0.058401
v 2.188840 0.773230 0.058040
v 2.160265 0.773230 0.086615
v 2.189378 0.000000 -0.058401
v 2.160626 0.000000 -0.087153
v 2.160265 0.773230 -0.086615
v 2.188840 0.773230 -0.058040
v 2.015073 0.000000 0.058401
v 2.043824 0.000000 0.087153
v 2.044185 0.773230 0.086615
v 2.015610 0.773230 0.058040
v 2.043824 0.000000 -0.087153
v 2.015073 0.000000 -0.058401
v 2.015610 0.773230 -0.058040
v 2.044185 0.773230 -0.086615
v 2.153573 0.386615 0.076627
v 2.178852 0.386615 0.051348
v 2.153573 0.386615 -0.076627
v 2.178852 0.386615 -0.051348
v 2.025598 0.386615 -0.051348
v 2.050878 0.386615 -0.076627
v 2.050878 0.386615 0.076627
v 2.025598 0.386615 0.051348
vn 0.3813 0.0008 0.9245
vn 0.3839 -0.0305 0.9229
vn -0.3839 -0.0305 0.9229
vn -0.3813 0.0008 0.9245
vn 0.9245 0.0008 -0.3813
vn 0.9229 -0.0305 -0.3839
vn 0.9229 -0.0305 0.3839
vn 0.9245 0.0008 0.3813
vn -0.0000 1.0000 -0.0000
vn -0.9245 0.0008 0.3813
vn -0.9229 -0.0305 0.3839
vn -0.9229 -0.0305 -0.3839
vn -0.9245 0.0008 -0.3813
vn -0.3813 0.0008 -0.9245
vn -0.3839 -0.0305 -0.9229
vn 0.3839 -0.0305 -0.9229
vn 0.3813 0.0008 -0.9245
vn -0.3839 0.0321 -0.9228
vn -0.9228 0.0321 -0.3839
vn 0.9228 0.0321 -0.3839
vn 0.3839 0.0321 -0.9228
vn 0.3839 0.0321 0.9228
vn 0.9228 0.0321 0.3839
vn -0.0000 -1.0000 -0.0000
vn -0.3839 0.0321 0.9228
vn -0.9228 0.0321 0.3839
vt 0.183287 0.456960
vt 0.257917 0.456960
vt 0.257917 0.479367
vt 0.183287 0.479367
vt 0.183287 0.426752
vt 0.257917 0.426752
vt 0.257917 0.449159
vt 0.183287 0.449159
vt 0.280284 0.360824
vt 0.289564 0.351543
vt 0.327264 0.351543
vt 0.336544 0.360824
vt 0.336544 0.398524
vt 0.327264 0.407804
vt 0.289564 0.407804
vt 0.280284 0.398524
vt 0.182330 0.424924
vt 0.256959 0.424924
vt 0.256959 0.447332
vt 0.182330 0.447332
vt 0.182330 0.455132
vt 0.256959 0.455132
vt 0.256959 0.477540
vt 0.182330 0.477540
vt 0.257917 0.487168
vt 0.183287 0.487168
vt 0.107700 0.455132
vt 0.107700 0.447332
vt 0.182330 0.485340
vt 0.107700 0.485340
vt 0.107700 0.477540
vt 0.108657 0.456960
vt 0.108657 0.449159
vt 0.392873 0.398524
vt 0.383593 0.407804
vt 0.345892 0.407804
vt 0.336612 0.398524
vt 0.336612 0.360824
vt 0.345892 0.351543
vt 0.383592 0.351543
vt 0.392873 0.360824
vt 0.256959 0.485340
vt 0.108657 0.479367
vt 0.108657 0.487168
vt 0.107700 0.424924
vt 0.108657 0.426752
s 1
f 83/53/33 71/54/34 64/55/35 77/56/36
f 81/57/37 75/58/38 72/59/39 84/60/40
f 75/61/41 76/62/41 67/63/41 68/64/41 63/65/41 64/66/41 71/67/41 72/68/41
f 78/69/42 63/70/43 68/71/44 80/72/45
f 79/73/46 67/74/47 76/75/48 82/76/49
f 77/56/36 64/55/35 63/77/43 78/78/42
f 79/73/46 66/79/50 65/80/51 80/72/45
f 81/81/37 74/82/52 73/83/53 82/76/49
f 83/53/33 70/84/54 69/85/55 84/60/40
f 65/86/56 66/87/56 73/88/56 74/89/56 69/90/56 70/91/56 61/92/56 62/93/56
f 71/54/34 83/53/33 84/60/40 72/59/39
f 75/94/38 81/81/37 82/76/49 76/75/48
f 67/74/47 79/73/46 80/72/45 68/71/44
f 61/95/57 77/56/36 78/78/42 62/96/58
f 66/79/50 79/73/46 82/76/49 73/83/53
f 62/97/58 78/69/42 80/72/45 65/80/51
f 74/98/52 81/57/37 84/60/40 69/85/55
f 70/84/54 83/53/33 77/56/36 61/95/57
f 107/53/36 101/56/33 88/55/34 95/54/35
f 105/57/45 108/60/42 96/59/43 99/58/44
f 99/61/41 96/68/41 95/67/41 88/66/41 87/65/41 92/64/41 91/63/41 100/62/41
f 102/69/40 104/72/37 92/71/38 87/70/39
f 103/73/49 106/76/46 100/75/47 91/74/48
f 101/56/33 102/78/40 87/77/39 88/55/34
f 103/73/49 104/72/37 89/80/52 90/79/53
f 105/81/45 106/76/46 97/83/50 98/82/51
f 107/53/36 108/60/42 93/85/58 94/84/57
f 89/86/56 86/93/56 85/92/56 94/91/56 93/90/56 98/89/56 97/88/56 90/87/56
f 95/54/35 96/59/43 108/60/42 107/53/36
f 99/94/44 100/75/47 106/76/46 105/81/45
f 91/74/48 92/71/38 104/72/37 103/73/49
f 85/95/54 86/96/55 102/78/40 101/56/33
f 90/79/53 97/83/50 106/76/46 103/73/49
f 86/97/55 89/80/52 104/72/37 102/69/40
f 98/98/51 93/85/58 108/60/42 105/57/45
f 94/84/57 85/95/54 101/56/33 107/53/36
