# Blender 4.3.2
# www.blender.org
mtllib Lighthouse.mtl
o Circle.004
v -0.000000 60.271431 -8.702036
v -6.153268 60.271431 -6.153268
v -8.702036 60.271431 -0.000000
v -6.153268 60.271431 6.153268
v -0.000000 60.271431 8.702036
v 6.153268 60.271431 6.153268
v 8.702036 60.271431 -0.000000
v 6.153268 60.271431 -6.153268
v -1.795005 48.721489 7.295404
v -0.000000 10.073154 10.610668
v -1.795004 43.299805 7.017683
v -0.000000 32.057068 8.704460
v -0.000000 21.492851 9.384130
v 7.502875 10.073154 7.502875
v 5.754655 50.661842 5.754655
v 6.635582 21.492851 6.635582
v 6.154984 32.057068 6.154984
v 5.847414 41.359451 5.847414
v -8.138312 50.661842 -0.000000
v -10.610668 10.073154 0.000000
v -8.269491 41.359451 -0.000000
v -8.704460 32.057068 -0.000000
v -9.384130 21.492851 -0.000000
v -7.502875 10.073154 7.502875
v -3.889369 48.721489 6.427889
v -6.635582 21.492851 6.635582
v -6.154984 32.057068 6.154984
v -3.692991 43.299805 6.231511
v -0.000000 50.661842 -8.138312
v -0.000000 10.073154 -10.610668
v -0.000000 41.359451 -8.269491
v -0.000000 32.057068 -8.704460
v -0.000000 21.492851 -9.384130
v -7.502875 10.073154 -7.502875
v -5.754655 50.661842 -5.754655
v -6.635582 21.492851 -6.635582
v -6.154984 32.057068 -6.154984
v -5.847414 41.359451 -5.847414
v 5.754655 50.661842 -5.754655
v 7.502875 10.073154 -7.502875
v 5.847414 41.359451 -5.847414
v 6.154984 32.057068 -6.154984
v 6.635582 21.492851 -6.635582
v 10.610668 10.073154 0.000000
v 8.138312 50.661842 -0.000000
v 9.384130 21.492851 -0.000000
v 8.704460 32.057068 -0.000000
v 8.269491 41.359451 -0.000000
v -0.000000 62.541660 -7.642055
v -5.403749 62.541660 -5.403749
v -7.642056 62.541660 0.000000
v -5.403749 62.541660 5.403749
v -0.000000 62.541660 7.642056
v 7.849538 62.243252 3.526864
v 8.054741 62.243252 3.053660
v 5.403749 62.541660 -5.403749
v 0.000000 60.789978 -10.496174
v 0.000000 61.713413 -10.989237
v -7.770563 61.713413 -7.770563
v -7.421916 60.789978 -7.421916
v -10.989237 61.713413 -0.000000
v -10.496174 60.789978 -0.000000
v -7.770563 61.713413 7.770563
v -7.421916 60.789978 7.421916
v 0.000000 61.713413 10.989237
v 0.000000 60.789978 10.496174
v 8.086081 62.011822 3.620418
v 7.421916 60.789978 7.421916
v 8.297154 62.011822 3.135138
v 10.496174 60.789978 -0.000000
v 7.770563 61.713413 -7.770563
v 7.421916 60.789978 -7.421916
v -0.000000 62.541660 -4.675444
v -3.306038 62.541660 -3.306038
v -4.675444 62.541660 0.000000
v -3.306038 62.541660 3.306038
v -0.000000 62.541660 4.675444
v 3.306038 62.541660 3.306038
v 4.675444 62.541660 0.000000
v 3.306038 62.541660 -3.306038
v -0.000000 67.247246 -4.675444
v -3.306038 67.247246 -3.306038
v -4.675444 67.247246 0.000000
v -3.306038 67.247246 3.306038
v -0.000000 67.247246 4.675444
v 3.306038 67.247246 3.306038
v 4.675444 67.247246 0.000000
v 3.306038 67.247246 -3.306038
v 6.656040 67.247246 6.656041
v -0.000000 67.247246 9.413062
v 9.413062 67.247246 0.000000
v 6.656041 67.247246 -6.656041
v -0.000000 67.247246 -9.413062
v -6.656041 67.247246 -6.656040
v -9.413062 67.247246 0.000000
v -6.656041 67.247246 6.656041
v 5.337712 70.269287 5.337713
v -0.000000 70.269287 7.548665
v 7.548665 70.269287 0.000000
v 5.337713 70.269287 -5.337713
v -0.000000 70.269287 -7.548665
v -5.337713 70.269287 -5.337712
v -7.548665 70.269287 0.000000
v -5.337713 70.269287 5.337713
v -8.605858 0.112725 -8.605858
v 0.000000 0.112725 -12.170521
v -12.466183 0.112725 -0.178448
v -8.814922 0.112725 8.636475
v 0.000000 0.112725 12.287735
v 8.814922 0.112725 8.636475
v 12.466183 0.112725 -0.178448
v 8.605858 0.112725 -8.605858
v 8.366594 10.073154 -8.366594
v 11.832150 10.073154 -0.000000
v -11.832150 10.073154 -0.000000
v -8.366594 10.073154 -8.366594
v -0.000000 10.073154 11.832150
v -8.366594 10.073154 8.366594
v 8.366594 10.073154 8.366594
v -0.000000 10.073154 -11.832150
v -8.608165 -13.458598 -8.608165
v 0.000000 -13.458598 -12.173782
v -12.173782 -13.458598 -0.000000
v -8.608165 -13.458598 8.608165
v 0.000000 -13.458598 12.173782
v 8.608165 -13.458598 8.608165
v 12.173782 -13.458598 -0.000000
v 8.608165 -13.458598 -8.608165
v -5.847414 41.359451 5.847414
v -5.754655 50.661842 5.754655
v -0.000000 50.661842 8.138312
v -0.000000 41.359451 8.269491
v -3.114826 43.371304 4.835698
v -3.311205 48.792988 5.032076
v -1.216840 48.792988 5.899591
v -1.216840 43.371304 5.621870
v 7.642055 62.541660 0.000000
v 5.403749 62.541660 5.403749
v 7.770563 61.713413 7.770563
v 10.989237 61.713413 -0.000000
v 7.852722 62.243252 3.256785
v 8.285307 62.011822 3.435641
v 7.884543 64.595497 3.458527
v 7.880567 64.595497 3.795886
v 8.359266 64.595497 3.639714
v 8.374707 64.595497 3.248062
v 8.098112 64.595497 3.881927
v 8.164224 64.595497 3.177316
v 7.877824 64.172974 3.615494
v 8.114367 64.172974 3.709048
v 7.881008 64.172974 3.345415
v 8.313593 64.172974 3.524271
v 8.325440 64.172974 3.223769
v 8.083026 64.172974 3.142291
v 7.595006 64.595497 3.337058
v 7.587276 64.595497 3.992767
v 8.645254 64.595497 3.771291
v 8.674017 64.595497 3.041720
v 8.161564 64.595497 4.219900
v 8.085475 64.595497 2.843904
v 8.359266 65.014816 3.639714
v 7.884543 65.014816 3.458527
v 7.880567 65.014816 3.795886
v 8.374707 65.014816 3.248062
v 8.098112 65.014816 3.881927
v 8.164224 65.014816 3.177316
v 8.359266 65.357590 3.639714
v 7.884543 65.357590 3.458527
v 7.880567 65.357590 3.795886
v 8.374707 65.357590 3.248062
v 8.098112 65.357590 3.881927
v 8.164224 65.357590 3.177316
v 8.152828 65.014816 4.173369
v 8.152828 65.357590 4.173369
v 7.611098 65.014816 3.343809
v 7.634361 65.014816 3.961160
v 8.628656 65.014816 3.763656
v 8.618848 65.014816 3.079753
v 8.096061 65.014816 2.888722
v 7.611098 65.357590 3.343809
v 7.634361 65.357590 3.961160
v 8.628656 65.357590 3.763656
v 8.618848 65.357590 3.079753
v 8.096061 65.357590 2.888722
vn -0.0000 1.0000 -0.0000
vn -0.9997 -0.0224 -0.0000
vn -0.9983 -0.0586 -0.0000
vn -0.7059 -0.0586 -0.7059
vn -0.7069 -0.0224 -0.7069
vn -0.0000 -0.0224 -0.9997
vn -0.0000 -0.0586 -0.9983
vn 0.7059 -0.0586 -0.7059
vn 0.7069 -0.0224 -0.7069
vn 0.9997 -0.0224 -0.0000
vn 0.9983 -0.0586 -0.0000
vn 0.7059 -0.0586 0.7059
vn 0.7069 -0.0224 0.7069
vn -0.6947 -0.0337 0.7185
vn -0.7059 -0.0586 0.7059
vn -0.0000 -0.0586 0.9983
vn -0.0168 -0.0337 0.9993
vn 0.9995 0.0305 -0.0000
vn 0.7068 0.0305 -0.7068
vn 0.9985 0.0556 -0.0000
vn 0.7060 0.0556 -0.7060
vn 0.9963 0.0860 -0.0000
vn 0.7045 0.0860 -0.7045
vn 0.9943 0.1068 -0.0000
vn 0.7031 0.1068 -0.7031
vn -0.7068 0.0305 -0.7068
vn -0.9995 0.0305 -0.0000
vn -0.7060 0.0556 -0.7060
vn -0.9985 0.0556 -0.0000
vn -0.7045 0.0860 -0.7045
vn -0.9963 0.0860 -0.0000
vn -0.7031 0.1068 -0.7031
vn -0.9943 0.1068 -0.0000
vn -0.9241 0.0196 -0.3818
vn -0.6933 0.0565 0.7184
vn -0.7060 0.0556 0.7060
vn -0.0000 0.0556 0.9985
vn -0.0177 0.0565 0.9982
vn -0.7045 0.0860 0.7045
vn -0.0000 0.0860 0.9963
vn -0.7031 0.1068 0.7031
vn -0.0000 0.1068 0.9943
vn 0.7068 0.0305 0.7068
vn 0.7060 0.0556 0.7060
vn 0.7045 0.0860 0.7045
vn 0.7031 0.1068 0.7031
vn -0.0000 0.0305 -0.9995
vn -0.0000 0.0556 -0.9985
vn -0.0000 0.0860 -0.9963
vn -0.0000 0.1068 -0.9943
vn -0.0000 0.9707 0.2402
vn -0.0000 0.9886 0.1505
vn -0.1064 0.9886 0.1064
vn -0.1698 0.9707 0.1698
vn -0.0000 0.9707 -0.2402
vn -0.0000 0.9886 -0.1505
vn 0.1064 0.9886 -0.1064
vn 0.1698 0.9707 -0.1698
vn -0.2402 0.9707 -0.0000
vn -0.1505 0.9886 -0.0000
vn -0.1064 0.9886 -0.1064
vn -0.1698 0.9707 -0.1698
vn 0.1543 0.9880 -0.0008
vn 0.2513 0.9679 -0.0009
vn 0.1771 0.9679 0.1781
vn 0.1088 0.9880 0.1097
vn 0.2777 -0.9607 -0.0000
vn 0.6811 -0.7322 -0.0000
vn 0.4816 -0.7322 0.4816
vn 0.1963 -0.9607 0.1963
vn -0.0000 -0.9607 0.2777
vn -0.0000 -0.7322 0.6811
vn -0.4816 -0.7322 0.4816
vn -0.1963 -0.9607 0.1963
vn -0.2777 -0.9607 -0.0000
vn -0.6811 -0.7322 -0.0000
vn -0.4816 -0.7322 -0.4816
vn -0.1963 -0.9607 -0.1963
vn 0.1963 -0.9607 -0.1963
vn 0.4816 -0.7322 -0.4816
vn -0.0000 -0.7322 -0.6811
vn -0.0000 -0.9607 -0.2777
vn -0.6238 -0.4710 -0.6238
vn -0.0000 -0.4710 -0.8821
vn -0.8821 -0.4710 -0.0000
vn -0.6238 -0.4710 0.6238
vn -0.0000 -0.4710 0.8821
vn 0.6238 -0.4710 0.6238
vn 0.8821 -0.4710 -0.0000
vn 0.6238 -0.4710 -0.6238
vn -0.7718 -0.4512 0.4480
vn -0.5369 -0.7365 0.4114
vn -0.7889 -0.5398 -0.2936
vn -0.8765 -0.2769 -0.3937
vn -0.0000 -0.0000 -1.0000
vn 0.7071 -0.0000 -0.7071
vn 1.0000 -0.0000 -0.0000
vn 0.7071 -0.0000 0.7071
vn -0.0000 -0.0000 1.0000
vn -0.7071 -0.0000 0.7071
vn -1.0000 -0.0000 -0.0000
vn -0.7071 -0.0000 -0.7071
vn -0.0000 -1.0000 -0.0000
vn -0.6018 0.5251 -0.6018
vn -0.0000 0.5251 -0.8511
vn 0.6018 0.5251 -0.6018
vn 0.8511 0.5251 -0.0000
vn 0.6018 0.5251 0.6018
vn -0.0000 0.5251 0.8511
vn -0.6018 0.5251 0.6018
vn -0.8511 0.5251 -0.0000
vn -0.0000 0.0185 0.9998
vn -0.0000 0.0457 0.9990
vn -0.7040 0.0509 0.7084
vn -0.7088 0.0192 0.7051
vn -0.9997 0.0197 -0.0130
vn -0.9985 0.0546 -0.0049
vn -0.6997 0.0431 -0.7131
vn -0.7004 0.0182 -0.7135
vn -0.0000 0.0170 -0.9999
vn -0.0000 0.0340 -0.9994
vn 0.6997 0.0431 -0.7131
vn 0.7004 0.0182 -0.7135
vn 0.7088 0.0192 0.7051
vn 0.7040 0.0509 0.7084
vn 0.9985 0.0546 -0.0049
vn 0.9997 0.0197 -0.0130
vn 0.7006 -0.0066 -0.7136
vn -0.0000 0.0002 -1.0000
vn 0.7054 -0.0122 0.7087
vn 0.9999 -0.0148 -0.0059
vn -0.7054 -0.0122 0.7087
vn -0.0000 -0.0084 1.0000
vn -0.7006 -0.0066 -0.7136
vn -0.9999 -0.0148 -0.0059
vn -0.3191 -0.0280 0.9473
vn -0.3178 0.1177 0.9408
vn -0.4442 -0.0280 0.8955
vn -0.4405 0.1177 0.8900
vn -0.3823 -0.0473 0.9228
vn 0.9233 0.0196 0.3835
vn -0.0181 0.9989 0.0437
vn 0.0181 -0.9989 -0.0437
vn 0.1514 0.9865 0.0629
vn 0.1940 0.9791 0.0602
vn 0.1807 0.9806 0.0764
vn 0.1877 0.9811 0.0476
vn 0.1591 0.9824 0.0980
vn 0.1778 0.9796 0.0941
vn 0.1719 -0.5118 0.8418
vn 0.1064 -0.7710 0.6279
vn 0.3186 -0.0000 -0.9479
vn 0.9085 -0.0000 0.4180
vn 0.6800 -0.0000 0.7332
vn 0.8318 -0.4184 0.3646
vn 0.6456 -0.6936 0.3196
vn -0.2447 -0.3031 -0.9210
vn -0.1599 -0.5688 -0.8068
vn 0.6135 -0.6795 -0.4024
vn 0.7421 -0.4139 -0.5272
vn -0.9183 0.0316 -0.3946
vn -0.7084 0.0427 -0.7045
vn 0.9991 -0.0147 0.0394
vn 0.9113 -0.0288 0.4107
vn 0.3339 0.0362 -0.9419
vn 0.6795 -0.0389 0.7326
vn -0.3822 -0.0347 0.9234
vn -0.9998 0.0152 -0.0118
vn 0.9992 -0.0000 0.0394
vn -0.9221 -0.0000 -0.3869
vn -0.7090 -0.0000 -0.7052
vn -0.3678 -0.0000 0.9299
vn -0.9999 -0.0000 -0.0118
vn 0.3432 -0.0000 -0.9393
vn 0.9119 -0.0000 0.4103
vn 0.6525 -0.0000 0.7578
vn 0.9999 -0.0000 -0.0143
vn -0.9250 -0.0000 -0.3800
vn -0.6843 -0.0000 -0.7292
vn -0.3788 -0.0000 0.9255
vn -0.9993 -0.0000 0.0377
vt 0.284748 0.640262
vt 0.284505 0.639177
vt 0.279943 0.640377
vt 0.280289 0.641409
vt 0.294010 0.638865
vt 0.293912 0.637746
vt 0.289175 0.638316
vt 0.289345 0.639428
vt 0.275405 0.642030
vt 0.276229 0.642920
vt 0.440971 0.507826
vt 0.440577 0.503446
vt 0.437553 0.503787
vt 0.438143 0.508144
vt 0.307970 0.638967
vt 0.308130 0.637891
vt 0.303425 0.637511
vt 0.303376 0.638622
vt 0.457976 0.508589
vt 0.458761 0.504262
vt 0.455755 0.503787
vt 0.455166 0.508144
vt 0.452338 0.507826
vt 0.452732 0.503446
vt 0.449696 0.503242
vt 0.449499 0.507635
vt 0.434548 0.504262
vt 0.435332 0.508589
vt 0.443810 0.507635
vt 0.443613 0.503242
vt 0.446654 0.503174
vt 0.446654 0.507571
vt 0.474611 0.540330
vt 0.474171 0.545937
vt 0.477695 0.546283
vt 0.478354 0.540697
vt 0.441289 0.517317
vt 0.441029 0.513061
vt 0.438283 0.513288
vt 0.438650 0.517517
vt 0.440680 0.508203
vt 0.437748 0.508473
vt 0.440290 0.502967
vt 0.437157 0.503260
vt 0.455839 0.540697
vt 0.456498 0.546283
vt 0.460022 0.545937
vt 0.459582 0.540330
vt 0.454505 0.517519
vt 0.454870 0.513286
vt 0.452123 0.513060
vt 0.451864 0.517319
vt 0.455400 0.508471
vt 0.452469 0.508203
vt 0.455988 0.503263
vt 0.452859 0.502970
vt 0.493200 0.469860
vt 0.494494 0.468902
vt 0.494588 0.458594
vt 0.493015 0.457309
vt 0.449220 0.517194
vt 0.449354 0.512923
vt 0.446576 0.512877
vt 0.446575 0.517151
vt 0.449526 0.508044
vt 0.446575 0.507990
vt 0.449720 0.502795
vt 0.446575 0.502736
vt 0.470857 0.540109
vt 0.470637 0.545729
vt 0.443931 0.517192
vt 0.443797 0.512923
vt 0.443624 0.508043
vt 0.443430 0.502793
vt 0.481203 0.546766
vt 0.482080 0.541211
vt 0.435585 0.513597
vt 0.436015 0.517777
vt 0.434836 0.508859
vt 0.434039 0.503675
vt 0.452113 0.541211
vt 0.452991 0.546766
vt 0.457145 0.517777
vt 0.457568 0.513593
vt 0.458312 0.508855
vt 0.459103 0.503676
vt 0.463557 0.545729
vt 0.463336 0.540109
vt 0.467097 0.540035
vt 0.467097 0.545659
vt 0.442597 0.334305
vt 0.442611 0.335078
vt 0.444126 0.335326
vt 0.444383 0.334620
vt 0.438483 0.338127
vt 0.439109 0.337987
vt 0.439226 0.336914
vt 0.438673 0.336707
vt 0.445931 0.335559
vt 0.445367 0.336013
vt 0.445945 0.336935
vt 0.446490 0.336752
vt 0.439813 0.335958
vt 0.439288 0.335476
vt 0.440801 0.334599
vt 0.441094 0.335297
vt 0.438972 0.335107
vt 0.439193 0.335349
vt 0.440735 0.334419
vt 0.440599 0.334049
vt 0.442599 0.333687
vt 0.442597 0.334098
vt 0.444456 0.334440
vt 0.444594 0.334068
vt 0.446234 0.335175
vt 0.446023 0.335430
vt 0.446625 0.336684
vt 0.446905 0.336569
vt 0.438248 0.336512
vt 0.438535 0.336633
vt 0.446834 0.338049
vt 0.447145 0.337854
vt 0.437956 0.337828
vt 0.438268 0.338039
vt 0.446624 0.338127
vt 0.300059 0.250356
vt 0.300048 0.250332
vt 0.300035 0.250317
vt 0.300040 0.250310
vt 0.443896 0.336077
vt 0.444905 0.336510
vt 0.445406 0.337127
vt 0.445484 0.337808
vt 0.446018 0.337974
vt 0.439673 0.337834
vt 0.439780 0.337123
vt 0.440304 0.336478
vt 0.441369 0.336057
vt 0.442639 0.335911
vt 0.579274 0.545174
vt 0.579274 0.557898
vt 0.585623 0.557898
vt 0.585623 0.545174
vt 0.591973 0.545174
vt 0.591973 0.557898
vt 0.598322 0.557898
vt 0.598322 0.545174
vt 0.604671 0.545174
vt 0.604671 0.557898
vt 0.611021 0.557898
vt 0.611021 0.545174
vt 0.617370 0.545174
vt 0.617370 0.557898
vt 0.623719 0.557898
vt 0.623719 0.545174
vt 0.630068 0.557898
vt 0.630068 0.545174
vt 0.480376 0.737380
vt 0.477282 0.734388
vt 0.473772 0.736289
vt 0.469909 0.741605
vt 0.473556 0.747003
vt 0.476870 0.748979
vt 0.479819 0.746272
vt 0.481175 0.741849
vt 0.466117 0.751106
vt 0.471377 0.753346
vt 0.472438 0.750326
vt 0.466165 0.746204
vt 0.472164 0.729638
vt 0.466117 0.732225
vt 0.466204 0.737266
vt 0.472745 0.732944
vt 0.479284 0.728631
vt 0.478451 0.729829
vt 0.485057 0.734237
vt 0.482771 0.735956
vt 0.483744 0.741996
vt 0.482119 0.748112
vt 0.477450 0.753368
vt 0.486644 0.742108
vt 0.484338 0.749650
vt 0.478174 0.754725
vt 0.312222 0.639744
vt 0.312877 0.638726
vt 0.298702 0.638607
vt 0.298675 0.637483
vt 0.293414 0.632104
vt 0.298552 0.631822
vt 0.303691 0.631871
vt 0.308823 0.632243
vt 0.273208 0.636530
vt 0.278269 0.634939
vt 0.314082 0.632923
vt 0.288307 0.632722
vt 0.283258 0.633672
vt 0.276266 0.627430
vt 0.271039 0.628918
vt 0.287098 0.624995
vt 0.281551 0.626080
vt 0.298391 0.624001
vt 0.292727 0.624300
vt 0.309480 0.624502
vt 0.304041 0.624099
vt 0.314884 0.625052
vt 0.464555 0.541258
vt 0.464684 0.544534
vt 0.465924 0.541231
vt 0.465924 0.544509
vt 0.497276 0.469922
vt 0.497357 0.457927
vt 0.498558 0.455391
vt 0.498558 0.470496
vt 0.440283 0.335373
vt 0.440327 0.335346
vt 0.440217 0.335287
vt 0.440168 0.335339
vt 0.440298 0.335300
vt 0.440217 0.335392
vt 0.300052 0.250376
vt 0.300049 0.250337
vt 0.300039 0.250296
vt 0.300043 0.250305
vt 0.300043 0.250305
vt 0.300041 0.250294
vt 0.300052 0.250312
vt 0.300046 0.250310
vt 0.300045 0.250314
vt 0.300048 0.250322
vt 0.300098 0.250293
vt 0.300065 0.250321
vt 0.300025 0.250237
vt 0.300033 0.250278
vt 0.300033 0.250271
vt 0.299990 0.250257
vt 0.300062 0.250202
vt 0.298992 0.244992
vt 0.302441 0.240838
vt 0.306074 0.244119
vt 0.304484 0.250916
vt 0.301640 0.253027
vt 0.300040 0.250312
vt 0.300046 0.250322
vt 0.300045 0.250310
vt 0.300045 0.250310
vt 0.300044 0.250308
vt 0.300044 0.250309
vt 0.300044 0.250309
vt 0.300044 0.250308
vt 0.300044 0.250310
vt 0.300044 0.250310
vt 0.300043 0.250310
vt 0.300045 0.250313
vt 0.300044 0.250311
vt 0.300045 0.250311
vt 0.300045 0.250312
vt 0.300045 0.250312
vt 0.300044 0.250311
vt 0.300045 0.250310
vt 0.300043 0.250307
vt 0.300044 0.250307
vt 0.300045 0.250311
vt 0.300043 0.250310
s 1
usemtl BuildingTrim
f 44/1/1 114/2/1 113/3/1 40/4/1
f 10/5/1 117/6/1 119/7/1 14/8/1
f 40/4/1 113/3/1 120/9/1 30/10/1
f 19/11/2 3/12/3 2/13/4 35/14/5
f 34/15/1 116/16/1 115/17/1 20/18/1
f 29/19/6 1/20/7 8/21/8 39/22/9
f 14/8/1 119/7/1 114/2/1 44/1/1
f 45/23/10 7/24/11 6/25/12 15/26/13
f 39/22/9 8/21/8 7/24/11 45/23/10
f 35/14/5 2/13/4 1/27/7 29/28/6
f 130/29/14 4/30/15 3/12/3 19/11/2
f 15/26/13 6/25/12 5/31/16 131/32/17
f 45/33/10 48/34/18 41/35/19 39/36/9
f 48/37/18 47/38/20 42/39/21 41/40/19
f 47/38/20 46/41/22 43/42/23 42/39/21
f 46/41/22 44/43/24 40/44/25 43/42/23
f 35/45/5 38/46/26 21/47/27 19/48/2
f 38/49/26 37/50/28 22/51/29 21/52/27
f 37/50/28 36/53/30 23/54/31 22/51/29
f 36/53/30 34/55/32 20/56/33 23/54/31
f 9/57/34 135/58/34 136/59/34 11/60/34
f 129/61/35 27/62/36 12/63/37 132/64/38
f 27/62/36 26/65/39 13/66/40 12/63/37
f 26/65/39 24/67/41 10/68/42 13/66/40
f 15/69/13 18/70/43 48/34/18 45/33/10
f 18/71/43 17/72/44 47/38/20 48/37/18
f 17/72/44 16/73/45 46/41/22 47/38/20
f 16/73/45 14/74/46 44/43/24 46/41/22
f 39/36/9 41/35/19 31/75/47 29/76/6
f 41/40/19 42/39/21 32/77/48 31/78/47
f 42/39/21 43/42/23 33/79/49 32/77/48
f 43/42/23 40/44/25 30/80/50 33/79/49
f 29/81/6 31/82/47 38/46/26 35/45/5
f 31/83/47 32/84/48 37/50/28 38/49/26
f 32/84/48 33/85/49 36/53/30 37/50/28
f 33/85/49 30/86/50 34/55/32 36/53/30
f 19/48/2 21/47/27 129/87/35 130/88/14
f 21/52/27 22/51/29 27/62/36 129/61/35
f 22/51/29 23/54/31 26/65/39 27/62/36
f 23/54/31 20/56/33 24/67/41 26/65/39
f 131/89/17 132/90/38 18/70/43 15/69/13
f 132/64/38 12/63/37 17/72/44 18/71/43
f 12/63/37 13/66/40 16/73/45 17/72/44
f 13/66/40 10/68/42 14/74/46 16/73/45
f 131/32/17 5/31/16 4/30/15 130/29/14
f 65/91/51 53/92/52 52/93/53 63/94/54
f 58/95/55 49/96/56 56/97/57 71/98/58
f 61/99/59 51/100/60 50/101/61 59/102/62
f 71/98/58 56/97/57 137/103/63 140/104/64
f 139/105/65 138/106/66 53/92/52 65/91/51
f 63/94/54 52/93/53 51/100/60 61/99/59
f 7/107/67 70/108/68 68/109/69 6/110/70
f 5/111/71 66/112/72 64/113/73 4/114/74
f 3/115/75 62/116/76 60/117/77 2/118/78
f 8/119/79 72/120/80 70/108/68 7/107/67
f 6/110/70 68/109/69 66/112/72 5/111/71
f 4/114/74 64/113/73 62/116/76 3/115/75
f 2/118/78 60/117/77 57/121/81 1/122/82
f 1/123/82 57/124/81 72/120/80 8/119/79
f 60/117/77 59/102/83 58/125/84 57/121/81
f 62/116/76 61/99/85 59/102/83 60/117/77
f 64/113/73 63/94/86 61/99/85 62/116/76
f 66/112/72 65/91/87 63/94/86 64/113/73
f 68/109/69 139/105/88 65/91/87 66/112/72
f 70/108/68 140/104/89 139/105/88 68/109/69
f 72/120/80 71/98/90 140/104/89 70/108/68
f 57/124/81 58/95/84 71/98/90 72/120/80
f 149/126/91 156/127/92 155/128/93 151/129/94
f 52/93/53 76/130/1 75/131/1 51/100/60
f 50/101/61 74/132/1 73/133/1 49/134/56
f 49/96/56 73/135/1 80/136/1 56/97/57
f 137/103/63 79/137/1 78/138/1 138/106/66
f 53/92/52 77/139/1 76/130/1 52/93/53
f 51/100/60 75/131/1 74/132/1 50/101/61
f 56/97/57 80/136/1 79/137/1 137/103/63
f 138/106/66 78/138/1 77/139/1 53/92/52
f 73/140/95 81/141/95 88/142/96 80/143/96
f 79/144/97 87/145/97 86/146/98 78/147/98
f 77/148/99 85/149/99 84/150/100 76/151/100
f 75/152/101 83/153/101 82/154/102 74/155/102
f 80/143/96 88/142/96 87/145/97 79/144/97
f 78/147/98 86/146/98 85/149/99 77/148/99
f 76/151/100 84/150/100 83/153/101 75/152/101
f 74/155/102 82/154/102 81/156/95 73/157/95
f 97/158/1 99/159/1 100/160/1 101/161/1 102/162/1 103/163/1 104/164/1 98/165/1
f 81/166/103 82/167/103 94/168/103 93/169/103
f 88/170/103 81/171/103 93/172/103 92/173/103
f 87/174/103 88/170/103 92/173/103 91/175/103
f 86/176/103 87/174/103 91/175/103 89/177/103
f 94/168/104 102/162/104 101/161/105 93/169/105
f 92/173/106 100/160/106 99/159/107 91/175/107
f 89/177/108 97/158/108 98/165/109 90/178/109
f 90/178/109 98/165/109 104/164/110 96/179/110
f 95/180/111 103/163/111 102/162/104 94/168/104
f 93/172/105 101/161/105 100/160/106 92/173/106
f 91/175/107 99/159/107 97/158/108 89/177/108
f 96/179/110 104/164/110 103/163/111 95/180/111
f 85/181/103 86/176/103 89/177/103 90/178/103
f 84/182/103 85/181/103 90/178/103 96/179/103
f 83/183/103 84/182/103 96/179/103 95/180/103
f 82/167/103 83/183/103 95/180/103 94/168/103
f 30/184/1 120/185/1 116/16/1 34/15/1
f 24/186/1 118/187/1 117/6/1 10/5/1
f 20/18/1 115/17/1 118/187/1 24/186/1
f 109/188/112 117/6/113 118/187/114 108/189/115
f 107/190/116 115/17/117 116/16/118 105/191/119
f 106/192/120 120/9/121 113/3/122 112/193/123
f 105/191/119 116/16/118 120/185/121 106/194/120
f 110/195/124 119/7/125 117/6/113 109/188/112
f 108/189/115 118/187/114 115/17/117 107/190/116
f 112/193/123 113/3/122 114/2/126 111/196/127
f 111/196/127 114/2/126 119/7/125 110/195/124
f 112/193/123 128/197/128 122/198/129 106/192/120
f 110/195/124 126/199/130 127/200/131 111/196/127
f 108/189/115 124/201/132 125/202/133 109/188/112
f 105/191/119 121/203/134 123/204/135 107/190/116
f 111/196/127 127/200/131 128/197/128 112/193/123
f 109/188/112 125/202/133 126/199/130 110/195/124
f 107/190/116 123/204/135 124/201/132 108/189/115
f 106/194/120 122/205/129 121/203/134 105/191/119
f 59/102/62 50/101/61 49/134/56 58/125/55
f 25/206/136 130/88/14 129/87/35 28/207/137
f 9/208/138 131/89/17 130/88/14 25/206/136
f 11/209/139 132/90/38 131/89/17 9/208/138
f 28/207/137 129/87/35 132/90/38 11/209/139
f 134/210/140 133/211/140 136/59/140 135/58/140
f 28/212/141 133/211/141 134/210/141 25/213/141
f 11/60/142 136/59/142 133/211/142 28/212/142
f 25/213/143 134/210/143 135/58/143 9/57/143
f 141/214/144 138/106/66 54/215/145
f 142/216/146 140/104/64 69/217/147
f 54/215/145 138/106/66 139/105/65 67/218/148
f 69/217/147 140/104/64 137/103/63 55/219/149
f 150/220/150 159/221/151 156/127/92 149/126/91
f 55/219/149 137/103/63 141/214/144
f 137/103/63 138/106/66 141/214/144
f 142/216/146 139/105/65 140/104/64
f 67/218/148 139/105/65 142/216/146
f 148/222/152 166/223/152 164/224/152 146/225/152
f 145/226/153 161/227/153 165/228/154 147/229/154
f 152/230/155 157/231/156 159/221/151 150/220/150
f 154/232/157 160/233/158 158/234/159 153/235/160
f 153/235/160 158/234/159 157/231/156 152/230/155
f 151/129/94 155/128/93 160/233/158 154/232/157
f 141/236/161 151/129/94 154/232/157 55/237/162
f 69/238/163 153/235/160 152/230/155 142/239/164
f 55/237/165 154/232/157 153/235/160 69/238/165
f 142/239/164 152/230/155 150/220/150 67/240/166
f 67/240/167 150/220/150 149/126/91 54/241/167
f 54/241/168 149/126/91 151/129/94 141/236/161
f 143/242/1 155/128/1 156/127/1 144/243/1
f 145/226/1 157/231/1 158/234/1 146/225/1
f 144/243/1 156/127/1 159/221/1 147/229/1
f 146/225/1 158/234/1 160/233/1 148/222/1
f 148/222/1 160/233/1 155/128/1 143/242/1
f 147/229/1 159/221/1 157/231/1 145/226/1
f 167/244/1 182/245/1 183/246/1 170/247/1
f 172/248/1 184/249/1 180/250/1 168/251/1
f 146/225/169 164/224/169 161/227/153 145/226/153
f 143/242/170 162/252/170 166/223/171 148/222/171
f 147/229/172 165/228/172 163/253/172 144/243/172
f 144/243/173 163/253/173 162/252/170 143/242/170
f 167/244/1 168/251/1 169/254/1 171/255/1
f 170/247/1 172/248/1 168/251/1 167/244/1
f 165/228/103 173/256/103 176/257/103 163/253/103
f 168/251/1 180/250/1 181/258/1 169/254/1
f 161/227/103 177/259/103 173/256/103 165/228/103
f 170/247/1 183/246/1 184/249/1 172/248/1
f 179/260/174 184/249/174 183/246/174 178/261/174
f 177/259/175 182/245/175 174/262/176 173/256/176
f 178/261/177 183/246/177 182/245/175 177/259/175
f 175/263/178 180/250/178 184/249/179 179/260/179
f 173/256/180 174/262/180 181/258/180 176/257/180
f 176/257/181 181/258/181 180/250/178 175/263/178
f 166/223/103 179/260/103 178/261/103 164/224/103
f 171/255/1 174/262/1 182/245/1 167/244/1
f 163/253/103 176/257/103 175/263/103 162/252/103
f 169/254/1 181/258/1 174/262/1 171/255/1
f 162/252/103 175/263/103 179/260/103 166/223/103
f 164/224/103 178/261/103 177/259/103 161/227/103
