# Blender 4.3.2
# www.blender.org
o Cylinder.002
v 2.325417 0.552006 -0.147478
v 2.279442 0.552006 -0.114075
v 2.297003 0.552006 -0.060028
v 2.353831 0.552006 -0.060028
v 2.371392 0.552006 -0.114075
v 2.325417 0.011088 -0.147478
v 2.279442 0.011088 -0.114075
v 2.297003 0.011088 -0.060028
v 2.353831 0.011088 -0.060028
v 2.371392 0.011088 -0.114075
v 2.929856 0.552006 -0.147478
v 2.883881 0.552006 -0.114075
v 2.901442 0.552006 -0.060028
v 2.958271 0.552006 -0.060028
v 2.975832 0.552006 -0.114075
v 2.929856 0.011088 -0.147478
v 2.883881 0.011088 -0.114075
v 2.901442 0.011088 -0.060028
v 2.958271 0.011088 -0.060028
v 2.975832 0.011088 -0.114075
v 3.534296 0.552006 -0.147478
v 3.488320 0.552006 -0.114075
v 3.505882 0.552006 -0.060028
v 3.562710 0.552006 -0.060028
v 3.580271 0.552006 -0.114075
v 3.534296 0.011088 -0.147478
v 3.488320 0.011088 -0.114075
v 3.505882 0.011088 -0.060028
v 3.562710 0.011088 -0.060028
v 3.580271 0.011088 -0.114075
v 4.001751 0.453046 -0.176788
v 4.000000 0.460717 -0.052114
v 4.000117 0.559264 -0.015470
v 4.000615 0.630732 -0.097250
v 3.999205 0.569663 -0.182390
v 2.000020 0.457999 -0.172429
v 2.000020 0.466244 -0.056020
v 2.000020 0.557568 -0.022038
v 2.000020 0.623991 -0.097630
v 2.000020 0.566790 -0.176156
v 1.674622 0.552006 -0.147478
v 1.720598 0.552006 -0.114075
v 1.703037 0.552006 -0.060028
v 1.646208 0.552006 -0.060028
v 1.628647 0.552006 -0.114075
v 1.674622 0.011088 -0.147478
v 1.720598 0.011088 -0.114075
v 1.703037 0.011088 -0.060028
v 1.646208 0.011088 -0.060028
v 1.628647 0.011088 -0.114075
v 1.070183 0.552006 -0.147478
v 1.116158 0.552006 -0.114075
v 1.098598 0.552006 -0.060028
v 1.041769 0.552006 -0.060028
v 1.024208 0.552006 -0.114075
v 1.070183 0.011088 -0.147478
v 1.116158 0.011088 -0.114075
v 1.098597 0.011088 -0.060028
v 1.041769 0.011088 -0.060028
v 1.024208 0.011088 -0.114075
v 0.465744 0.552006 -0.147478
v 0.511719 0.552006 -0.114075
v 0.494158 0.552006 -0.060028
v 0.437330 0.552006 -0.060028
v 0.419769 0.552006 -0.114075
v 0.465744 0.011088 -0.147478
v 0.511719 0.011088 -0.114075
v 0.494158 0.011088 -0.060028
v 0.437330 0.011088 -0.060028
v 0.419769 0.011088 -0.114075
v -0.001711 0.453046 -0.176788
v 0.000040 0.460717 -0.052114
v -0.000078 0.559264 -0.015470
v -0.000575 0.630732 -0.097250
v 0.000834 0.569663 -0.182390
vn -0.0000 -0.0000 -1.0000
vn 0.9511 -0.0000 -0.3090
vn 0.5878 -0.0000 0.8090
vn -0.5878 -0.0000 0.8090
vn -0.9511 -0.0000 -0.3090
vn -0.0000 -0.7440 -0.6682
vn -0.0038 -0.7457 -0.6662
vn -0.0032 -0.8035 0.5953
vn -0.0000 -0.8019 0.5975
vn -0.0000 0.4366 -0.8996
vn -0.0031 0.4353 -0.9003
vn -0.0000 0.2451 0.9695
vn -0.0034 0.2463 0.9692
vn -0.0035 0.9988 0.0491
vn -0.0000 0.9989 0.0469
vn 1.0000 0.0043 0.0005
vn 0.0032 -0.8035 0.5953
vn 0.0038 -0.7457 -0.6662
vn 0.0031 0.4353 -0.9003
vn 0.0035 0.9988 0.0491
vn 0.0034 0.2463 0.9692
vn -1.0000 0.0043 0.0005
vt 0.971279 0.225232
vt 0.971279 0.237379
vt 0.521902 0.237379
vt 0.521902 0.225232
vt 0.971279 0.188793
vt 0.971279 0.200940
vt 0.521902 0.200940
vt 0.521902 0.188794
vt 0.971279 0.213086
vt 0.521902 0.213086
vt 0.971279 0.176647
vt 0.521902 0.176647
vt 0.748468 0.212952
vt 0.991440 0.212952
vt 0.991440 0.230426
vt 0.748468 0.230427
vt 0.748468 0.178002
vt 0.991440 0.178002
vt 0.748468 0.125578
vt 0.991440 0.125578
vt 0.991440 0.143053
vt 0.748468 0.143053
vt 0.763770 0.065428
vt 0.733939 0.053072
vt 0.746295 0.023240
vt 0.763770 0.023240
vt 0.776126 0.053072
vt 0.991440 0.090629
vt 0.748468 0.090629
s 1
f 1/1/1 5/2/2 10/3/2 6/4/1
f 4/5/3 3/6/4 8/7/4 9/8/3
f 2/9/5 1/1/1 6/4/1 7/10/5
f 5/11/2 4/5/3 9/8/3 10/12/2
f 3/6/4 2/9/5 7/10/5 8/7/4
f 11/1/1 15/2/2 20/3/2 16/4/1
f 14/5/3 13/6/4 18/7/4 19/8/3
f 12/9/5 11/1/1 16/4/1 17/10/5
f 15/11/2 14/5/3 19/8/3 20/12/2
f 13/6/4 12/9/5 17/10/5 18/7/4
f 21/1/1 25/2/2 30/3/2 26/4/1
f 24/5/3 23/6/4 28/7/4 29/8/3
f 22/9/5 21/1/1 26/4/1 27/10/5
f 25/11/2 24/5/3 29/8/3 30/12/2
f 23/6/4 22/9/5 27/10/5 28/7/4
f 36/13/6 31/14/7 32/15/8 37/16/9
f 40/17/10 35/18/11 31/14/7 36/13/6
f 38/19/12 33/20/13 34/21/14 39/22/15
f 31/23/16 35/24/16 34/25/16 33/26/16 32/27/16
f 34/21/14 35/18/11 40/17/10 39/22/15
f 32/28/8 33/20/13 38/19/12 37/29/9
f 41/1/1 46/4/1 50/3/5 45/2/5
f 44/5/4 49/8/4 48/7/3 43/6/3
f 42/9/2 47/10/2 46/4/1 41/1/1
f 45/11/5 50/12/5 49/8/4 44/5/4
f 43/6/3 48/7/3 47/10/2 42/9/2
f 51/1/1 56/4/1 60/3/5 55/2/5
f 54/5/4 59/8/4 58/7/3 53/6/3
f 52/9/2 57/10/2 56/4/1 51/1/1
f 55/11/5 60/12/5 59/8/4 54/5/4
f 53/6/3 58/7/3 57/10/2 52/9/2
f 61/1/1 66/4/1 70/3/5 65/2/5
f 64/5/4 69/8/4 68/7/3 63/6/3
f 62/9/2 67/10/2 66/4/1 61/1/1
f 65/11/5 70/12/5 69/8/4 64/5/4
f 63/6/3 68/7/3 67/10/2 62/9/2
f 36/13/6 37/16/9 72/15/17 71/14/18
f 40/17/10 36/13/6 71/14/18 75/18/19
f 38/19/12 39/22/15 74/21/20 73/20/21
f 71/23/22 72/27/22 73/26/22 74/25/22 75/24/22
f 74/21/20 39/22/15 40/17/10 75/18/19
f 72/28/17 37/29/9 38/19/12 73/20/21
