# Blender 4.3.2
# www.blender.org
mtllib Pool.mtl
o Cube.023
v -11.894223 -1.651530 22.795200
v -13.410798 -1.651530 21.452223
v -9.840616 1.283392 19.917437
v -11.261662 1.283392 18.692844
v -13.410798 -1.651530 -18.799992
v -11.894223 -1.651530 -20.142973
v -11.261662 1.283392 -16.040613
v -9.840617 1.283392 -17.265205
v 13.402753 -1.651530 21.452223
v 12.059772 -1.651530 22.795200
v 11.261662 1.283392 18.692844
v 10.037069 1.283392 19.917437
v 12.059772 -1.651530 -20.142973
v 13.402753 -1.651530 -18.799992
v 10.037070 1.283392 -17.265205
v 11.261662 1.283392 -16.040613
v -11.883259 1.283392 22.795200
v -13.410798 1.283392 21.448202
v -13.410798 1.283392 -18.795973
v -11.883260 1.283392 -20.142973
v 12.055751 1.283392 -20.142973
v 13.402753 1.283392 -18.795973
v 13.402753 1.283392 21.448202
v 12.055751 1.283392 22.795200
v -6.697780 -1.480020 18.696499
v -7.215593 -1.480020 19.917437
v -5.260024 -1.480020 -17.265205
v -6.697780 -1.480020 -16.044270
v 11.261662 -1.480020 -16.044270
v 10.040726 -1.480020 -17.265205
v 10.040726 -1.480020 19.917437
v 11.261662 -1.480020 18.696499
vn -0.0000 -0.0000 1.0000
vn -0.0000 1.0000 -0.0000
vn 0.5179 0.8554 -0.0000
vn 0.5508 0.8305 -0.0832
vn 0.5553 0.8261 -0.0957
vn -1.0000 -0.0000 -0.0000
vn -0.0000 -0.0000 -1.0000
vn 1.0000 -0.0000 -0.0000
vn -0.6622 0.0017 0.7493
vn -0.6622 0.0017 -0.7493
vn 0.7071 0.0010 -0.7071
vn 0.7071 0.0010 0.7071
vn -0.7071 -0.0009 0.7071
vn -0.7071 -0.0009 -0.7071
vn 0.5947 0.7734 -0.2196
vn 0.4427 0.7322 0.5176
vn -0.0000 -1.0000 -0.0000
vt 0.375000 0.762521
vt 0.625000 0.762559
vt 0.625000 0.985758
vt 0.375000 0.985860
vt 0.647064 0.509505
vt 0.850922 0.509505
vt 0.848819 0.509505
vt 0.648666 0.509505
vt 0.634505 0.517112
vt 0.634505 0.732888
vt 0.625000 0.742157
vt 0.625000 0.507843
vt 0.865495 0.517112
vt 0.865495 0.732888
vt 0.865495 0.732910
vt 0.865495 0.517090
vt 0.375000 0.007819
vt 0.625000 0.007843
vt 0.625000 0.242157
vt 0.375000 0.242181
vt 0.634505 0.517090
vt 0.648666 0.509505
vt 0.848819 0.509505
vt 0.865495 0.517090
vt 0.848819 0.740495
vt 0.648666 0.740495
vt 0.634505 0.732910
vt 0.850922 0.740495
vt 0.647064 0.740495
vt 0.648666 0.740495
vt 0.848819 0.740495
vt 0.375000 0.507819
vt 0.625000 0.742157
vt 0.375000 0.742181
vt 0.634505 0.732910
vt 0.375000 0.264140
vt 0.625000 0.264242
vt 0.625000 0.487441
vt 0.375000 0.487479
vt 0.875000 0.507843
vt 0.875000 0.742157
vt 0.860758 0.750000
vt 0.637559 0.750000
vt 0.647064 0.509505
vt 0.637559 0.500000
vt 0.860758 0.500000
vt 0.375000 0.000000
vt 0.625000 0.000000
vt 0.125000 0.507819
vt 0.139140 0.500000
vt 0.362479 0.500000
vt 0.375000 0.742181
vt 0.362479 0.750000
vt 0.139140 0.750000
vt 0.125000 0.742181
s 1
f 10/1/1 24/2/1 17/3/1 1/4/1
f 15/5/1 8/6/1 27/7/1 30/8/1
f 16/9/2 11/10/2 23/11/2 22/12/2
f 7/13/3 4/14/4 25/15/5 28/16/3
f 2/17/6 18/18/6 19/19/6 5/20/6
f 29/21/2 30/22/2 27/23/2 28/24/2 25/15/2 26/25/2 31/26/2 32/27/2
f 3/28/7 12/29/7 31/30/7 26/31/7
f 14/32/8 22/12/8 23/33/8 9/34/8
f 11/10/6 16/9/6 29/21/6 32/35/6
f 6/36/7 20/37/7 21/38/7 13/39/7
f 4/14/2 7/13/2 19/40/2 18/41/2
f 12/29/2 3/28/2 17/42/2 24/43/2
f 8/6/2 15/44/2 21/45/2 20/46/2
f 1/47/9 17/48/9 18/18/9 2/17/9
f 20/37/10 6/36/10 5/20/10 19/19/10
f 22/12/11 14/32/11 13/39/11 21/38/11
f 24/2/12 10/1/12 9/34/12 23/33/12
f 17/42/2 3/28/2 4/14/2 18/41/2
f 8/6/2 20/46/2 19/40/2 7/13/2
f 16/9/2 22/12/2 21/45/2 15/44/2
f 12/29/2 24/43/2 23/11/2 11/10/2
f 15/5/13 30/8/13 29/21/13 16/9/13
f 31/30/14 12/29/14 11/10/14 32/35/14
f 3/28/15 26/31/15 25/15/5 4/14/4
f 27/7/16 8/6/16 7/13/16 28/16/16
f 5/49/17 6/50/17 13/51/17 14/32/17 9/52/17 10/53/17 1/54/17 2/55/17
